<svg version="1.1" id="Layer_1" xmlns="http://www.w3.org/2000/svg" xmlns:xlink="http://www.w3.org/1999/xlink" x="0px" y="0px"
	 width="100%" viewBox="0 0 512 512" enable-background="new 0 0 512 512" xml:space="preserve">
<path fill="transparent" opacity="1.000000" stroke="none" 
	d="
M284.000000,1.000000 
	C360.293518,1.000000 436.587036,1.000000 512.940308,1.000000 
	C512.940308,171.666672 512.940308,342.333344 512.940308,513.000000 
	C480.570221,513.000000 448.253754,513.000000 415.568878,512.658081 
	C420.705078,506.722687 420.665497,502.456299 415.212982,496.678528 
	C412.843933,494.168152 410.598816,491.531921 408.416656,488.855682 
	C398.381561,476.548431 388.430603,464.172424 378.368530,451.887390 
	C368.432373,439.756042 358.399139,427.704193 348.405670,415.614075 
	C354.751404,414.897064 361.001831,414.733307 366.995514,413.408173 
	C382.669952,409.942657 395.805511,402.068054 406.597809,390.005005 
	C418.766815,376.403076 425.714050,360.470306 425.823975,342.516418 
	C426.254517,272.194031 426.055939,201.867371 425.913391,131.542648 
	C425.899139,124.524918 425.377686,117.357582 423.892975,110.519966 
	C417.942322,83.115227 401.390717,64.487541 375.082703,55.184711 
	C367.390900,52.464794 358.824646,51.587746 350.593048,51.170303 
	C337.858795,50.524521 325.067719,51.000000 312.000000,51.000000 
	C312.000000,45.930031 312.156769,41.449551 311.964661,36.984081 
	C311.645905,29.573864 309.968048,22.599949 305.814117,16.205391 
	C300.546661,8.096642 292.767639,3.917601 284.000000,1.000000 
z"/>
<path fill="transparent" opacity="1.000000" stroke="none" 
	d="
M99.000000,513.000000 
	C66.350372,513.000000 33.700745,513.000000 1.025558,513.000000 
	C1.025558,342.439392 1.025558,171.878784 1.025558,1.000000 
	C77.020599,1.000000 153.041641,1.000000 229.382904,1.356993 
	C217.690231,3.622977 206.442810,13.716229 204.094833,25.727367 
	C202.502655,33.872124 202.060944,42.241776 201.048141,51.000000 
	C187.579819,51.000000 173.631012,50.895287 159.685654,51.067421 
	C155.788330,51.115524 151.856247,51.753174 148.017044,52.510345 
	C132.099747,55.649548 118.984558,63.584679 107.937248,75.458420 
	C95.238869,89.106728 88.290100,105.339844 88.177696,123.612648 
	C87.741234,194.564102 88.050438,265.519867 87.971550,336.473907 
	C87.945358,360.034668 95.700005,380.057220 113.436668,396.027802 
	C122.732773,404.398346 133.286865,410.242004 145.427200,412.915497 
	C152.005463,414.364197 158.797073,414.843964 165.597031,415.775146 
	C156.630890,426.456787 147.614883,437.071747 138.739059,447.802643 
	C126.529480,462.564056 114.417389,477.406158 102.280113,492.227264 
	C94.530518,501.690369 91.360863,504.530396 99.000000,513.000000 
z"/>
<path fill="#4B0000" opacity="1.000000" stroke="none" 
	d="
M99.444168,513.000000 
	C91.360863,504.530396 94.530518,501.690369 102.280113,492.227264 
	C114.417389,477.406158 126.529480,462.564056 138.739059,447.802643 
	C147.614883,437.071747 156.630890,426.456787 165.597031,415.775146 
	C158.797073,414.843964 152.005463,414.364197 145.427200,412.915497 
	C133.286865,410.242004 122.732773,404.398346 113.436668,396.027802 
	C95.700005,380.057220 87.945358,360.034668 87.971550,336.473907 
	C88.050438,265.519867 87.741234,194.564102 88.177696,123.612648 
	C88.290100,105.339844 95.238869,89.106728 107.937248,75.458420 
	C118.984558,63.584679 132.099747,55.649548 148.017044,52.510345 
	C151.856247,51.753174 155.788330,51.115524 159.685654,51.067421 
	C173.631012,50.895287 187.579819,51.000000 201.048141,51.000000 
	C202.060944,42.241776 202.502655,33.872124 204.094833,25.727367 
	C206.442810,13.716229 217.690231,3.622977 229.851562,1.356993 
	C247.687561,1.000000 265.375122,1.000000 283.531342,1.000000 
	C292.767639,3.917601 300.546661,8.096642 305.814117,16.205391 
	C309.968048,22.599949 311.645905,29.573864 311.964661,36.984081 
	C312.156769,41.449551 312.000000,45.930031 312.000000,51.000000 
	C325.067719,51.000000 337.858795,50.524521 350.593048,51.170303 
	C358.824646,51.587746 367.390900,52.464794 375.082703,55.184711 
	C401.390717,64.487541 417.942322,83.115227 423.892975,110.519966 
	C425.377686,117.357582 425.899139,124.524918 425.913391,131.542648 
	C426.055939,201.867371 426.254517,272.194031 425.823975,342.516418 
	C425.714050,360.470306 418.766815,376.403076 406.597809,390.005005 
	C395.805511,402.068054 382.669952,409.942657 366.995514,413.408173 
	C361.001831,414.733307 354.751404,414.897064 348.405670,415.614075 
	C358.399139,427.704193 368.432373,439.756042 378.368530,451.887390 
	C388.430603,464.172424 398.381561,476.548431 408.416656,488.855682 
	C410.598816,491.531921 412.843933,494.168152 415.212982,496.678528 
	C420.665497,502.456299 420.705078,506.722687 415.100220,512.658081 
	C412.629425,513.000000 410.258881,513.000000 407.332336,512.668823 
	C402.165070,507.115570 397.823730,501.616608 392.848816,496.767670 
	C389.461060,493.465668 388.331268,487.843933 381.516663,487.861420 
	C298.439301,488.074677 215.361191,488.020721 132.283401,487.926544 
	C128.855804,487.922668 126.971527,489.375366 124.963150,491.845001 
	C119.127838,499.020569 113.008148,505.964935 107.000000,513.000000 
	C104.629440,513.000000 102.258888,513.000000 99.444168,513.000000 
M172.500000,331.000000 
	C251.255463,331.000000 330.010925,331.000000 408.617218,331.000000 
	C408.617218,300.595184 408.617218,270.868835 408.617218,241.250137 
	C307.293427,241.250137 206.352570,241.250137 105.294411,241.250137 
	C105.294411,271.226532 105.294411,300.951965 105.294411,331.000000 
	C127.558289,331.000000 149.529144,331.000000 172.500000,331.000000 
M293.500000,398.000000 
	C313.661438,398.000000 333.822845,398.000946 353.984283,397.997864 
	C355.316895,397.997650 356.690674,398.174011 357.975983,397.918945 
	C376.852386,394.173157 391.947998,384.840393 401.583099,367.787384 
	C404.978485,361.778015 407.398987,355.348602 407.968842,348.274292 
	C306.985321,348.274292 206.580063,348.274292 106.174950,348.274292 
	C106.105537,349.042633 105.945076,349.560333 106.032402,350.032166 
	C111.044281,377.109314 135.459335,398.124908 163.033569,398.036652 
	C206.188644,397.898499 249.344482,398.000000 293.500000,398.000000 
M354.290222,68.000000 
	C289.796722,68.000000 225.303131,67.951050 160.809967,68.098831 
	C155.981644,68.109894 150.905472,68.813828 146.371475,70.409149 
	C120.578995,79.484467 104.824615,101.157684 104.965401,128.977539 
	C105.118050,159.140442 105.000000,189.304703 105.000000,219.468369 
	C105.000000,221.229462 105.000000,222.990555 105.000000,224.629181 
	C113.387459,224.629181 121.115578,224.629181 129.000000,224.629181 
	C129.000000,190.936996 128.950134,157.615234 129.028015,124.293785 
	C129.054031,113.161537 134.275970,104.622520 142.973907,98.000938 
	C150.388916,92.356033 159.195343,91.170181 167.987579,91.100029 
	C199.815720,90.846046 231.647812,90.870132 263.477112,91.037460 
	C293.736816,91.196541 323.998566,91.480385 354.252197,92.074806 
	C370.326508,92.390633 384.898499,107.042351 384.963867,123.749763 
	C385.088409,155.579437 385.000000,187.409958 385.000000,219.240128 
	C385.000000,221.023148 385.000000,222.806168 385.000000,224.709869 
	C393.221191,224.709869 400.946320,224.709869 409.000000,224.709869 
	C409.000000,222.625000 409.000000,220.818771 409.000000,219.012558 
	C409.000000,189.682144 409.039673,160.351608 408.955933,131.021423 
	C408.943787,126.761475 408.466949,122.489067 407.990814,118.246468 
	C404.937256,91.038185 381.406281,70.382889 354.290222,68.000000 
M249.000000,195.500000 
	C249.000000,166.416870 249.000000,137.333740 249.000000,108.002800 
	C220.372757,108.002800 192.394867,107.645638 164.434540,108.189957 
	C154.178101,108.389626 145.724258,115.384193 145.877396,127.825172 
	C146.252655,158.310577 146.000000,188.803711 146.000000,219.293732 
	C146.000000,221.071320 146.000000,222.848907 146.000000,224.702393 
	C180.582001,224.702393 214.632935,224.702393 249.000000,224.702393 
	C249.000000,215.105499 249.000000,205.802750 249.000000,195.500000 
M321.500000,225.000000 
	C336.920868,225.000000 352.341766,225.000000 367.719025,225.000000 
	C367.865540,223.857697 367.981567,223.374695 367.981750,222.891663 
	C367.993713,190.070084 368.011505,157.248474 367.953186,124.427017 
	C367.950409,122.856926 367.513336,121.177147 366.861877,119.736931 
	C363.140137,111.508987 356.171204,108.121719 347.659576,108.064293 
	C321.503448,107.887833 295.345367,107.997330 269.188049,108.008369 
	C267.907776,108.008911 266.627563,108.129829 265.301331,108.197021 
	C265.301331,147.259857 265.301331,185.975571 265.301331,225.000000 
	C283.900604,225.000000 302.200287,225.000000 321.500000,225.000000 
M213.500000,471.000000 
	C265.781097,471.000000 318.062164,471.000000 370.897888,471.000000 
	C370.168091,469.614685 369.806671,468.514069 369.116760,467.687653 
	C365.221405,463.021423 360.669922,458.786438 357.451111,453.702393 
	C353.721130,447.810883 348.941010,446.841309 342.496307,446.866425 
	C284.001709,447.094269 225.505737,447.049561 167.010727,446.886932 
	C163.173492,446.876251 160.752213,448.288849 158.583084,450.943604 
	C155.787079,454.365601 153.007492,457.801331 150.254684,461.258118 
	C147.861908,464.262726 145.516235,467.304840 142.626038,471.000000 
	C166.602783,471.000000 189.551392,471.000000 213.500000,471.000000 
M326.175903,415.743561 
	C325.425934,415.496887 324.676147,415.034912 323.925964,415.034332 
	C279.627319,414.998779 235.328644,414.995850 191.029999,415.032562 
	C189.950119,415.033447 188.446732,415.150818 187.859863,415.832672 
	C184.094513,420.207550 180.530258,424.755524 176.545380,429.685181 
	C230.482422,429.685181 283.617340,429.685181 337.391846,429.685181 
	C333.598785,424.877380 330.199738,420.569031 326.175903,415.743561 
M220.001862,31.833120 
	C219.552536,38.149410 219.103210,44.465698 218.654648,50.771423 
	C244.670471,50.771423 269.608612,50.771423 294.995758,50.771423 
	C294.995758,45.767254 295.351013,40.945972 294.924103,36.194981 
	C293.940399,25.248089 285.948517,17.254028 275.010071,17.860714 
	C263.713440,18.487265 252.330322,18.464420 241.030823,17.864096 
	C230.577164,17.308714 223.811142,21.467310 220.001862,31.833120 
z"/>
<path fill="transparent" opacity="1.000000" stroke="none" 
	d="
M107.468658,513.000000 
	C113.008148,505.964935 119.127838,499.020569 124.963150,491.845001 
	C126.971527,489.375366 128.855804,487.922668 132.283401,487.926544 
	C215.361191,488.020721 298.439301,488.074677 381.516663,487.861420 
	C388.331268,487.843933 389.461060,493.465668 392.848816,496.767670 
	C397.823730,501.616608 402.165070,507.115570 406.888184,512.668823 
	C307.312439,513.000000 207.624878,513.000000 107.468658,513.000000 
z"/>
<path fill="transparent" opacity="1.000000" stroke="none" 
	d="
M172.000000,331.000000 
	C149.529144,331.000000 127.558289,331.000000 105.294411,331.000000 
	C105.294411,300.951965 105.294411,271.226532 105.294411,241.250137 
	C206.352570,241.250137 307.293427,241.250137 408.617218,241.250137 
	C408.617218,270.868835 408.617218,300.595184 408.617218,331.000000 
	C330.010925,331.000000 251.255463,331.000000 172.000000,331.000000 
M173.509949,266.007507 
	C161.014236,253.357727 142.126846,255.111771 131.570984,266.302734 
	C122.780670,275.621979 121.095749,287.407593 126.755569,299.074615 
	C132.057846,310.004639 141.328400,315.348938 153.787659,315.055176 
	C164.948822,314.792053 175.550034,308.190460 179.528976,297.895050 
	C183.952515,286.449280 182.253372,275.856384 173.509949,266.007507 
M385.564453,301.965210 
	C393.633270,290.286682 391.283844,270.971375 377.080658,261.991730 
	C363.358917,253.316528 346.183655,256.843475 337.510773,269.378571 
	C327.500793,283.846252 331.545380,301.301849 344.876068,310.301331 
	C358.450806,319.465515 376.363770,315.880188 385.564453,301.965210 
z"/>
<path fill="transparent" opacity="1.000000" stroke="none" 
	d="
M293.000000,398.000000 
	C249.344482,398.000000 206.188644,397.898499 163.033569,398.036652 
	C135.459335,398.124908 111.044281,377.109314 106.032402,350.032166 
	C105.945076,349.560333 106.105537,349.042633 106.174950,348.274292 
	C206.580063,348.274292 306.985321,348.274292 407.968842,348.274292 
	C407.398987,355.348602 404.978485,361.778015 401.583099,367.787384 
	C391.947998,384.840393 376.852386,394.173157 357.975983,397.918945 
	C356.690674,398.174011 355.316895,397.997650 353.984283,397.997864 
	C333.822845,398.000946 313.661438,398.000000 293.000000,398.000000 
z"/>
<path fill="transparent" opacity="1.000000" stroke="none" 
	d="
M354.762543,68.000038 
	C381.406281,70.382889 404.937256,91.038185 407.990814,118.246468 
	C408.466949,122.489067 408.943787,126.761475 408.955933,131.021423 
	C409.039673,160.351608 409.000000,189.682144 409.000000,219.012558 
	C409.000000,220.818771 409.000000,222.625000 409.000000,224.709869 
	C400.946320,224.709869 393.221191,224.709869 385.000000,224.709869 
	C385.000000,222.806168 385.000000,221.023148 385.000000,219.240128 
	C385.000000,187.409958 385.088409,155.579437 384.963867,123.749763 
	C384.898499,107.042351 370.326508,92.390633 354.252197,92.074806 
	C323.998566,91.480385 293.736816,91.196541 263.477112,91.037460 
	C231.647812,90.870132 199.815720,90.846046 167.987579,91.100029 
	C159.195343,91.170181 150.388916,92.356033 142.973907,98.000938 
	C134.275970,104.622520 129.054031,113.161537 129.028015,124.293785 
	C128.950134,157.615234 129.000000,190.936996 129.000000,224.629181 
	C121.115578,224.629181 113.387459,224.629181 105.000000,224.629181 
	C105.000000,222.990555 105.000000,221.229462 105.000000,219.468369 
	C105.000000,189.304703 105.118050,159.140442 104.965401,128.977539 
	C104.824615,101.157684 120.578995,79.484467 146.371475,70.409149 
	C150.905472,68.813828 155.981644,68.109894 160.809967,68.098831 
	C225.303131,67.951050 289.796722,68.000000 354.762543,68.000038 
z"/>
<path fill="transparent" opacity="1.000000" stroke="none" 
	d="
M249.000000,196.000000 
	C249.000000,205.802750 249.000000,215.105499 249.000000,224.702393 
	C214.632935,224.702393 180.582001,224.702393 146.000000,224.702393 
	C146.000000,222.848907 146.000000,221.071320 146.000000,219.293732 
	C146.000000,188.803711 146.252655,158.310577 145.877396,127.825172 
	C145.724258,115.384193 154.178101,108.389626 164.434540,108.189957 
	C192.394867,107.645638 220.372757,108.002800 249.000000,108.002800 
	C249.000000,137.333740 249.000000,166.416870 249.000000,196.000000 
z"/>
<path fill="transparent" opacity="1.000000" stroke="none" 
	d="
M321.000000,225.000000 
	C302.200287,225.000000 283.900604,225.000000 265.301331,225.000000 
	C265.301331,185.975571 265.301331,147.259857 265.301331,108.197021 
	C266.627563,108.129829 267.907776,108.008911 269.188049,108.008369 
	C295.345367,107.997330 321.503448,107.887833 347.659576,108.064293 
	C356.171204,108.121719 363.140137,111.508987 366.861877,119.736931 
	C367.513336,121.177147 367.950409,122.856926 367.953186,124.427017 
	C368.011505,157.248474 367.993713,190.070084 367.981750,222.891663 
	C367.981567,223.374695 367.865540,223.857697 367.719025,225.000000 
	C352.341766,225.000000 336.920868,225.000000 321.000000,225.000000 
z"/>
<path fill="transparent" opacity="1.000000" stroke="none" 
	d="
M213.000000,471.000000 
	C189.551392,471.000000 166.602783,471.000000 142.626038,471.000000 
	C145.516235,467.304840 147.861908,464.262726 150.254684,461.258118 
	C153.007492,457.801331 155.787079,454.365601 158.583084,450.943604 
	C160.752213,448.288849 163.173492,446.876251 167.010727,446.886932 
	C225.505737,447.049561 284.001709,447.094269 342.496307,446.866425 
	C348.941010,446.841309 353.721130,447.810883 357.451111,453.702393 
	C360.669922,458.786438 365.221405,463.021423 369.116760,467.687653 
	C369.806671,468.514069 370.168091,469.614685 370.897888,471.000000 
	C318.062164,471.000000 265.781097,471.000000 213.000000,471.000000 
z"/>
<path fill="transparent" opacity="1.000000" stroke="none" 
	d="
M326.488281,416.002106 
	C330.199738,420.569031 333.598785,424.877380 337.391846,429.685181 
	C283.617340,429.685181 230.482422,429.685181 176.545380,429.685181 
	C180.530258,424.755524 184.094513,420.207550 187.859863,415.832672 
	C188.446732,415.150818 189.950119,415.033447 191.029999,415.032562 
	C235.328644,414.995850 279.627319,414.998779 323.925964,415.034332 
	C324.676147,415.034912 325.425934,415.496887 326.488281,416.002106 
z"/>
<path fill="transparent" opacity="1.000000" stroke="none" 
	d="
M220.020264,31.417717 
	C223.811142,21.467310 230.577164,17.308714 241.030823,17.864096 
	C252.330322,18.464420 263.713440,18.487265 275.010071,17.860714 
	C285.948517,17.254028 293.940399,25.248089 294.924103,36.194981 
	C295.351013,40.945972 294.995758,45.767254 294.995758,50.771423 
	C269.608612,50.771423 244.670471,50.771423 218.654648,50.771423 
	C219.103210,44.465698 219.552536,38.149410 220.020264,31.417717 
M251.976746,42.999702 
	C255.624084,42.998764 259.295746,43.262047 262.912537,42.929203 
	C267.314117,42.524132 270.246948,39.610157 270.825928,35.467781 
	C271.319733,31.934681 270.515320,27.444246 266.202850,26.913506 
	C260.140625,26.167427 253.862320,26.234318 247.781921,26.907089 
	C243.668350,27.362242 242.846725,31.594601 243.135239,34.996433 
	C243.518341,39.513237 246.577728,42.177750 251.976746,42.999702 
z"/>
<path fill="#4B0000" opacity="1.000000" stroke="none" 
	d="
M173.763428,266.265625 
	C182.253372,275.856384 183.952515,286.449280 179.528976,297.895050 
	C175.550034,308.190460 164.948822,314.792053 153.787659,315.055176 
	C141.328400,315.348938 132.057846,310.004639 126.755569,299.074615 
	C121.095749,287.407593 122.780670,275.621979 131.570984,266.302734 
	C142.126846,255.111771 161.014236,253.357727 173.763428,266.265625 
M143.957123,278.565796 
	C143.184174,279.994629 142.274704,281.367615 141.663544,282.862610 
	C139.737793,287.573303 141.434341,291.637848 144.612228,294.982361 
	C147.785004,298.321472 154.786240,299.023102 158.363297,296.867126 
	C162.120712,294.602478 165.760345,288.247864 164.909775,284.881134 
	C162.443405,275.118683 152.362686,270.852203 143.957123,278.565796 
z"/>
<path fill="#4B0000" opacity="1.000000" stroke="none" 
	d="
M385.324341,302.252258 
	C376.363770,315.880188 358.450806,319.465515 344.876068,310.301331 
	C331.545380,301.301849 327.500793,283.846252 337.510773,269.378571 
	C346.183655,256.843475 363.358917,253.316528 377.080658,261.991730 
	C391.283844,270.971375 393.633270,290.286682 385.324341,302.252258 
M358.116150,297.969513 
	C359.281647,297.979645 360.448029,298.023987 361.612488,297.994080 
	C367.328400,297.847351 372.149109,293.772064 372.984039,288.403717 
	C373.820709,283.024200 370.619263,277.311401 365.618439,275.260223 
	C360.848236,273.303619 354.994873,275.549255 351.627014,279.632935 
	C346.340088,286.043518 350.688995,294.461517 358.116150,297.969513 
z"/>
<path fill="#4B0000" opacity="1.000000" stroke="none" 
	d="
M251.536072,42.998421 
	C246.577728,42.177750 243.518341,39.513237 243.135239,34.996433 
	C242.846725,31.594601 243.668350,27.362242 247.781921,26.907089 
	C253.862320,26.234318 260.140625,26.167427 266.202850,26.913506 
	C270.515320,27.444246 271.319733,31.934681 270.825928,35.467781 
	C270.246948,39.610157 267.314117,42.524132 262.912537,42.929203 
	C259.295746,43.262047 255.624084,42.998764 251.536072,42.998421 
z"/>
<path fill="transparent" opacity="1.000000" stroke="none" 
	d="
M144.222778,278.287506 
	C152.362686,270.852203 162.443405,275.118683 164.909775,284.881134 
	C165.760345,288.247864 162.120712,294.602478 158.363297,296.867126 
	C154.786240,299.023102 147.785004,298.321472 144.612228,294.982361 
	C141.434341,291.637848 139.737793,287.573303 141.663544,282.862610 
	C142.274704,281.367615 143.184174,279.994629 144.222778,278.287506 
z"/>
<path fill="transparent" opacity="1.000000" stroke="none" 
	d="
M357.718475,297.874878 
	C350.688995,294.461517 346.340088,286.043518 351.627014,279.632935 
	C354.994873,275.549255 360.848236,273.303619 365.618439,275.260223 
	C370.619263,277.311401 373.820709,283.024200 372.984039,288.403717 
	C372.149109,293.772064 367.328400,297.847351 361.612488,297.994080 
	C360.448029,298.023987 359.281647,297.979645 357.718475,297.874878 
z"/>
</svg>