<svg version="1.1" id="Layer_1" xmlns="http://www.w3.org/2000/svg" xmlns:xlink="http://www.w3.org/1999/xlink" x="0px" y="0px"
	 width="100%" viewBox="0 0 512 512" enable-background="new 0 0 512 512" xml:space="preserve">
<path fill="transparent" opacity="1.000000" stroke="none" 
	d="
M192.000000,0.999999 
	C298.958221,1.000000 405.916412,1.000000 512.937317,1.000000 
	C512.937317,171.558228 512.937317,342.116486 512.937317,513.000000 
	C422.310944,513.000000 331.621521,513.000000 240.165558,512.724121 
	C240.933090,510.216644 243.568253,508.098450 243.811996,505.733734 
	C244.911255,495.069275 245.092224,484.313049 246.063126,473.631622 
	C247.146713,461.710510 248.000961,449.696747 250.228714,437.965210 
	C256.335327,405.807007 265.720581,374.555939 278.374451,344.340179 
	C280.675812,338.844910 282.634460,333.112885 288.740753,330.005859 
	C300.079468,324.236359 310.952850,317.523163 322.428223,312.060516 
	C331.748352,307.623901 341.665802,304.442200 352.564087,300.221497 
	C351.439545,302.768250 351.050964,303.966583 350.422791,305.022369 
	C342.990997,317.513092 335.568695,330.009888 328.054047,342.450806 
	C318.260132,358.665222 304.455353,371.054352 289.161407,381.737671 
	C284.218353,385.190552 281.909332,392.443390 285.496826,397.902405 
	C288.681091,402.747772 295.142578,403.546539 300.790100,399.691559 
	C316.303131,389.102539 329.842010,376.337738 341.095306,361.323700 
	C357.582031,339.327271 370.309357,315.173248 380.945923,289.883270 
	C382.901520,285.233612 382.534027,280.601929 379.205383,276.936035 
	C375.928131,273.326721 371.301697,273.107117 366.856873,274.610474 
	C348.646881,280.769562 330.465424,287.014221 312.310913,293.334930 
	C308.596680,294.628082 305.043823,296.384735 301.416565,297.927734 
	C301.122772,297.596924 300.828979,297.266113 300.535217,296.935303 
	C311.319702,279.658142 322.104156,262.380981 332.741638,245.339340 
	C335.537384,246.091415 337.453491,246.484268 339.286133,247.118362 
	C364.165863,255.726898 388.652924,253.730423 412.137817,242.828400 
	C431.904724,233.652328 446.690765,218.721695 456.497742,199.051895 
	C460.667664,190.688354 465.080139,182.445190 469.419525,174.166809 
	C478.995026,155.899216 488.667389,137.681824 498.130890,119.356499 
	C500.426239,114.911781 498.532928,109.092300 494.642517,106.895393 
	C484.303925,101.057274 473.348480,96.862129 461.588776,95.071030 
	C458.285431,94.567902 457.256866,93.055229 456.922516,89.901108 
	C456.163696,82.743088 455.603058,75.473991 453.859497,68.526703 
	C447.726318,44.088421 426.013367,30.171751 400.987152,36.178947 
	C390.702179,38.647709 381.079376,43.875267 370.863037,47.964954 
	C367.068390,44.579834 362.753510,40.185478 357.880035,36.537304 
	C353.062683,32.931137 347.819946,29.821339 342.513062,26.958561 
	C335.295013,23.064798 330.144897,24.860971 326.284058,32.219269 
	C321.941498,40.495777 317.690216,48.820316 313.416168,57.132664 
	C302.563995,78.238266 290.985168,99.010262 281.080597,120.551865 
	C271.054077,142.358643 271.595001,165.329025 279.183228,187.808807 
	C285.175629,205.560852 295.589783,220.743515 310.796265,231.972824 
	C314.936829,235.030457 313.489655,236.863708 311.660950,239.757767 
	C302.679779,253.971222 292.987213,267.804749 285.004364,282.561462 
	C275.521820,300.090546 266.886749,318.151825 259.081512,336.491974 
	C252.450043,352.074066 247.474411,368.364166 241.861298,384.374359 
	C240.044998,389.554932 238.530060,394.841156 236.526947,401.189331 
	C226.070923,335.236359 206.904938,273.565979 175.567871,216.026978 
	C192.974136,208.162613 207.036865,197.357437 217.308289,182.104355 
	C233.749146,157.689636 239.481094,130.904022 230.956543,102.579559 
	C224.582184,81.399452 215.936279,60.890110 208.002426,40.196888 
	C202.951401,27.022713 197.352982,14.058406 192.000000,0.999999 
z"/>
<path fill="transparent" opacity="1.000000" stroke="none" 
	d="
M228.000000,513.000000 
	C152.373047,513.000000 76.746078,513.000000 1.059560,513.000000 
	C1.059560,342.333344 1.059560,171.666672 1.059560,1.000000 
	C32.428856,1.000000 63.745770,1.000000 95.742279,1.357255 
	C95.924980,2.113950 95.484306,2.740395 94.922905,2.879456 
	C82.543243,5.945973 73.219109,13.240577 67.986443,24.648956 
	C64.146667,33.020527 61.294113,42.015312 59.368763,51.024525 
	C58.367077,55.711700 56.536694,55.938656 52.836823,56.078121 
	C41.964909,56.487926 31.458086,58.925476 21.496027,63.276543 
	C15.074003,66.081451 13.408678,71.430481 15.972595,78.003662 
	C26.700348,105.506668 37.456036,132.999817 47.972824,160.583755 
	C56.859112,183.891129 72.670563,200.964661 94.384682,212.678040 
	C109.981110,221.091293 127.001755,224.687866 144.437073,222.644714 
	C153.477493,221.585297 157.116882,225.268860 160.041382,232.172058 
	C160.361282,232.927170 160.718170,233.669403 161.101913,234.394302 
	C175.514969,261.619507 186.841171,290.122406 195.942551,319.507721 
	C199.931076,332.385345 203.839294,345.331726 206.826736,358.464661 
	C210.724976,375.601471 213.673035,392.954407 217.236115,411.274414 
	C161.686905,386.547455 131.214401,341.393494 109.214729,287.899933 
	C127.627838,294.418213 145.099930,301.625702 161.504028,311.148895 
	C168.048187,314.948059 175.898590,314.479401 178.960464,309.193512 
	C182.479263,303.118774 179.772156,296.420166 172.328369,292.705536 
	C165.881516,289.488373 159.493668,286.150024 153.005188,283.019775 
	C133.710876,273.711548 113.680664,266.379364 93.098389,260.436737 
	C87.149994,258.719269 78.291145,264.758148 80.931305,272.691193 
	C84.009499,281.940521 87.016777,291.300629 91.168892,300.086151 
	C98.511398,315.622192 106.311180,330.973633 114.642021,346.001892 
	C122.340439,359.889313 131.696381,372.808838 142.850601,384.131012 
	C151.029480,392.433044 159.865250,400.195831 169.057373,407.366882 
	C183.397583,418.554077 198.584305,428.457855 216.559631,433.136627 
	C217.897919,433.484985 219.768661,435.232635 219.852539,436.437012 
	C221.056778,453.730713 222.133118,471.036499 222.941483,488.353302 
	C223.339508,496.879578 221.625427,505.738525 228.000000,513.000000 
z"/>
<path fill="rgba(0, 0, 0, 0.5)" opacity="1.000000" stroke="none" 
	d="
M228.460632,513.000000 
	C221.625427,505.738525 223.339508,496.879578 222.941483,488.353302 
	C222.133118,471.036499 221.056778,453.730713 219.852539,436.437012 
	C219.768661,435.232635 217.897919,433.484985 216.559631,433.136627 
	C198.584305,428.457855 183.397583,418.554077 169.057373,407.366882 
	C159.865250,400.195831 151.029480,392.433044 142.850601,384.131012 
	C131.696381,372.808838 122.340439,359.889313 114.642021,346.001892 
	C106.311180,330.973633 98.511398,315.622192 91.168892,300.086151 
	C87.016777,291.300629 84.009499,281.940521 80.931305,272.691193 
	C78.291145,264.758148 87.149994,258.719269 93.098389,260.436737 
	C113.680664,266.379364 133.710876,273.711548 153.005188,283.019775 
	C159.493668,286.150024 165.881516,289.488373 172.328369,292.705536 
	C179.772156,296.420166 182.479263,303.118774 178.960464,309.193512 
	C175.898590,314.479401 168.048187,314.948059 161.504028,311.148895 
	C145.099930,301.625702 127.627838,294.418213 109.214729,287.899933 
	C131.214401,341.393494 161.686905,386.547455 217.236115,411.274414 
	C213.673035,392.954407 210.724976,375.601471 206.826736,358.464661 
	C203.839294,345.331726 199.931076,332.385345 195.942551,319.507721 
	C186.841171,290.122406 175.514969,261.619507 161.101913,234.394302 
	C160.718170,233.669403 160.361282,232.927170 160.041382,232.172058 
	C157.116882,225.268860 153.477493,221.585297 144.437073,222.644714 
	C127.001755,224.687866 109.981110,221.091293 94.384682,212.678040 
	C72.670563,200.964661 56.859112,183.891129 47.972824,160.583755 
	C37.456036,132.999817 26.700348,105.506668 15.972595,78.003662 
	C13.408678,71.430481 15.074003,66.081451 21.496027,63.276543 
	C31.458086,58.925476 41.964909,56.487926 52.836823,56.078121 
	C56.536694,55.938656 58.367077,55.711700 59.368763,51.024525 
	C61.294113,42.015312 64.146667,33.020527 67.986443,24.648956 
	C73.219109,13.240577 82.543243,5.945973 94.922905,2.879456 
	C95.484306,2.740395 95.924980,2.113950 96.210938,1.357255 
	C103.020950,1.000000 110.041893,1.000000 117.277206,1.327277 
	C128.157669,7.443739 138.823776,13.232924 149.245209,18.889311 
	C157.857010,13.929239 167.051270,8.666079 176.191910,3.311417 
	C176.976654,2.851706 177.405716,1.784829 178.000000,0.999999 
	C182.356903,1.000000 186.713806,1.000000 191.535355,0.999999 
	C197.352982,14.058406 202.951401,27.022713 208.002426,40.196888 
	C215.936279,60.890110 224.582184,81.399452 230.956543,102.579559 
	C239.481094,130.904022 233.749146,157.689636 217.308289,182.104355 
	C207.036865,197.357437 192.974136,208.162613 175.567871,216.026978 
	C206.904938,273.565979 226.070923,335.236359 236.526947,401.189331 
	C238.530060,394.841156 240.044998,389.554932 241.861298,384.374359 
	C247.474411,368.364166 252.450043,352.074066 259.081512,336.491974 
	C266.886749,318.151825 275.521820,300.090546 285.004364,282.561462 
	C292.987213,267.804749 302.679779,253.971222 311.660950,239.757767 
	C313.489655,236.863708 314.936829,235.030457 310.796265,231.972824 
	C295.589783,220.743515 285.175629,205.560852 279.183228,187.808807 
	C271.595001,165.329025 271.054077,142.358643 281.080597,120.551865 
	C290.985168,99.010262 302.563995,78.238266 313.416168,57.132664 
	C317.690216,48.820316 321.941498,40.495777 326.284058,32.219269 
	C330.144897,24.860971 335.295013,23.064798 342.513062,26.958561 
	C347.819946,29.821339 353.062683,32.931137 357.880035,36.537304 
	C362.753510,40.185478 367.068390,44.579834 370.863037,47.964954 
	C381.079376,43.875267 390.702179,38.647709 400.987152,36.178947 
	C426.013367,30.171751 447.726318,44.088421 453.859497,68.526703 
	C455.603058,75.473991 456.163696,82.743088 456.922516,89.901108 
	C457.256866,93.055229 458.285431,94.567902 461.588776,95.071030 
	C473.348480,96.862129 484.303925,101.057274 494.642517,106.895393 
	C498.532928,109.092300 500.426239,114.911781 498.130890,119.356499 
	C488.667389,137.681824 478.995026,155.899216 469.419525,174.166809 
	C465.080139,182.445190 460.667664,190.688354 456.497742,199.051895 
	C446.690765,218.721695 431.904724,233.652328 412.137817,242.828400 
	C388.652924,253.730423 364.165863,255.726898 339.286133,247.118362 
	C337.453491,246.484268 335.537384,246.091415 332.741638,245.339340 
	C322.104156,262.380981 311.319702,279.658142 300.535217,296.935303 
	C300.828979,297.266113 301.122772,297.596924 301.416565,297.927734 
	C305.043823,296.384735 308.596680,294.628082 312.310913,293.334930 
	C330.465424,287.014221 348.646881,280.769562 366.856873,274.610474 
	C371.301697,273.107117 375.928131,273.326721 379.205383,276.936035 
	C382.534027,280.601929 382.901520,285.233612 380.945923,289.883270 
	C370.309357,315.173248 357.582031,339.327271 341.095306,361.323700 
	C329.842010,376.337738 316.303131,389.102539 300.790100,399.691559 
	C295.142578,403.546539 288.681091,402.747772 285.496826,397.902405 
	C281.909332,392.443390 284.218353,385.190552 289.161407,381.737671 
	C304.455353,371.054352 318.260132,358.665222 328.054047,342.450806 
	C335.568695,330.009888 342.990997,317.513092 350.422791,305.022369 
	C351.050964,303.966583 351.439545,302.768250 352.564087,300.221497 
	C341.665802,304.442200 331.748352,307.623901 322.428223,312.060516 
	C310.952850,317.523163 300.079468,324.236359 288.740753,330.005859 
	C282.634460,333.112885 280.675812,338.844910 278.374451,344.340179 
	C265.720581,374.555939 256.335327,405.807007 250.228714,437.965210 
	C248.000961,449.696747 247.146713,461.710510 246.063126,473.631622 
	C245.092224,484.313049 244.911255,495.069275 243.811996,505.733734 
	C243.568253,508.098450 240.933090,510.216644 239.699524,512.724121 
	C236.307098,513.000000 232.614182,513.000000 228.460632,513.000000 
M338.908356,154.390320 
	C347.755524,137.074173 360.219147,122.961723 376.474213,112.275955 
	C378.875061,110.697670 380.129272,109.729805 379.259399,106.133110 
	C373.897949,83.965439 361.831512,66.410515 344.058228,52.439938 
	C341.685303,50.574703 340.605621,50.717461 339.247803,53.325741 
	C327.900574,75.123451 316.466187,96.875763 305.086884,118.656837 
	C297.158813,133.831894 293.108246,149.580154 295.859985,166.989899 
	C299.136444,187.719696 308.957306,204.431534 325.591492,216.665787 
	C342.424622,229.046387 361.606049,233.631165 382.474274,230.045837 
	C403.571655,226.421173 420.343262,215.838104 432.245636,198.152786 
	C437.254669,190.710068 440.969147,182.392410 445.225006,174.447266 
	C454.820190,156.534485 464.386017,138.605988 474.028809,120.562164 
	C458.323486,114.312897 442.464478,111.929337 426.352417,115.206039 
	C416.536774,117.202225 406.645599,120.153389 397.634766,124.450432 
	C385.926697,130.033691 375.786621,138.198639 367.727020,148.710312 
	C358.407227,160.865509 351.770782,174.087708 349.971436,189.486008 
	C349.593506,192.720367 349.330688,196.063370 348.280182,199.102386 
	C346.556641,204.088531 340.884705,206.338928 334.987152,204.911621 
	C330.443970,203.812088 327.216125,198.200272 328.050507,192.125854 
	C329.813751,179.289688 332.473724,166.676239 338.908356,154.390320 
M40.246834,79.068382 
	C40.476818,80.625732 40.429371,82.289253 40.978622,83.724419 
	C48.604134,103.649376 56.305103,123.545494 64.001259,143.443390 
	C68.251076,154.431015 72.295227,165.607498 80.202667,174.607407 
	C96.647125,193.323715 117.044067,203.461700 142.411240,201.873108 
	C144.016373,201.772583 146.292114,200.207382 146.931107,198.744797 
	C152.977890,184.904602 156.149155,170.721771 154.228760,155.291031 
	C152.627075,142.421249 148.415253,130.826080 141.566101,120.126488 
	C130.540619,102.902695 115.700050,90.162285 96.421577,82.731476 
	C85.593155,78.557709 74.321243,76.476082 62.896580,76.218910 
	C55.635311,76.055458 48.326401,78.008286 40.246834,79.068382 
M173.940781,142.842072 
	C176.188461,156.395554 176.994614,169.950317 174.002686,183.512833 
	C173.279953,186.789093 172.590408,190.072678 171.777100,193.857834 
	C173.621140,193.046356 174.893173,192.639252 176.009857,191.972092 
	C191.286545,182.845139 202.460938,170.141113 208.741074,153.442749 
	C213.853882,139.848160 215.542953,125.660858 211.783264,111.596893 
	C208.719589,100.136482 204.149017,89.059471 199.934647,77.930588 
	C193.299164,60.408234 186.401718,42.985077 179.547028,25.344576 
	C165.035828,32.899807 153.548691,43.780468 144.378082,57.226044 
	C140.551544,62.836349 134.477509,64.518990 129.759476,61.209560 
	C124.505524,57.524208 123.344978,51.001251 126.986977,45.537922 
	C129.269669,42.113667 131.575302,38.704685 134.145233,34.880215 
	C127.629791,31.183569 121.729256,27.741192 115.738655,24.463409 
	C109.693542,21.155804 103.600151,21.555803 97.358498,24.232515 
	C87.534111,28.445671 84.698616,37.355659 82.078629,46.411484 
	C81.117088,49.734985 80.619377,53.192677 79.905067,56.613182 
	C122.514771,62.896427 163.190170,95.669022 173.940781,142.842072 
M401.990143,99.506027 
	C413.063446,96.899429 424.136719,94.292824 435.850159,91.535545 
	C437.061066,84.686028 434.856201,77.131393 432.273315,70.035423 
	C428.945038,60.891628 418.530701,53.541336 408.531372,56.131493 
	C400.415649,58.233746 392.673767,61.779118 385.748291,64.323586 
	C390.450531,76.302544 394.706329,87.224312 399.074402,98.100998 
	C399.381927,98.866753 400.517822,99.299843 401.990143,99.506027 
z"/>
<path fill="transparent" opacity="1.000000" stroke="none" 
	d="
M177.531342,0.999999 
	C177.405716,1.784829 176.976654,2.851706 176.191910,3.311417 
	C167.051270,8.666079 157.857010,13.929239 149.245209,18.889311 
	C138.823776,13.232924 128.157669,7.443739 117.745789,1.327277 
	C137.687561,1.000000 157.375122,1.000000 177.531342,0.999999 
z"/>
<path fill="transparent" opacity="1.000000" stroke="none" 
	d="
M338.695312,154.705231 
	C332.473724,166.676239 329.813751,179.289688 328.050507,192.125854 
	C327.216125,198.200272 330.443970,203.812088 334.987152,204.911621 
	C340.884705,206.338928 346.556641,204.088531 348.280182,199.102386 
	C349.330688,196.063370 349.593506,192.720367 349.971436,189.486008 
	C351.770782,174.087708 358.407227,160.865509 367.727020,148.710312 
	C375.786621,138.198639 385.926697,130.033691 397.634766,124.450432 
	C406.645599,120.153389 416.536774,117.202225 426.352417,115.206039 
	C442.464478,111.929337 458.323486,114.312897 474.028809,120.562164 
	C464.386017,138.605988 454.820190,156.534485 445.225006,174.447266 
	C440.969147,182.392410 437.254669,190.710068 432.245636,198.152786 
	C420.343262,215.838104 403.571655,226.421173 382.474274,230.045837 
	C361.606049,233.631165 342.424622,229.046387 325.591492,216.665787 
	C308.957306,204.431534 299.136444,187.719696 295.859985,166.989899 
	C293.108246,149.580154 297.158813,133.831894 305.086884,118.656837 
	C316.466187,96.875763 327.900574,75.123451 339.247803,53.325741 
	C340.605621,50.717461 341.685303,50.574703 344.058228,52.439938 
	C361.831512,66.410515 373.897949,83.965439 379.259399,106.133110 
	C380.129272,109.729805 378.875061,110.697670 376.474213,112.275955 
	C360.219147,122.961723 347.755524,137.074173 338.695312,154.705231 
z"/>
<path fill="transparent" opacity="1.000000" stroke="none" 
	d="
M40.642845,79.040253 
	C48.326401,78.008286 55.635311,76.055458 62.896580,76.218910 
	C74.321243,76.476082 85.593155,78.557709 96.421577,82.731476 
	C115.700050,90.162285 130.540619,102.902695 141.566101,120.126488 
	C148.415253,130.826080 152.627075,142.421249 154.228760,155.291031 
	C156.149155,170.721771 152.977890,184.904602 146.931107,198.744797 
	C146.292114,200.207382 144.016373,201.772583 142.411240,201.873108 
	C117.044067,203.461700 96.647125,193.323715 80.202667,174.607407 
	C72.295227,165.607498 68.251076,154.431015 64.001259,143.443390 
	C56.305103,123.545494 48.604134,103.649376 40.978622,83.724419 
	C40.429371,82.289253 40.476818,80.625732 40.642845,79.040253 
z"/>
<path fill="transparent" opacity="1.000000" stroke="none" 
	d="
M173.769836,142.446716 
	C163.190170,95.669022 122.514771,62.896427 79.905067,56.613182 
	C80.619377,53.192677 81.117088,49.734985 82.078629,46.411484 
	C84.698616,37.355659 87.534111,28.445671 97.358498,24.232515 
	C103.600151,21.555803 109.693542,21.155804 115.738655,24.463409 
	C121.729256,27.741192 127.629791,31.183569 134.145233,34.880215 
	C131.575302,38.704685 129.269669,42.113667 126.986977,45.537922 
	C123.344978,51.001251 124.505524,57.524208 129.759476,61.209560 
	C134.477509,64.518990 140.551544,62.836349 144.378082,57.226044 
	C153.548691,43.780468 165.035828,32.899807 179.547028,25.344576 
	C186.401718,42.985077 193.299164,60.408234 199.934647,77.930588 
	C204.149017,89.059471 208.719589,100.136482 211.783264,111.596893 
	C215.542953,125.660858 213.853882,139.848160 208.741074,153.442749 
	C202.460938,170.141113 191.286545,182.845139 176.009857,191.972092 
	C174.893173,192.639252 173.621140,193.046356 171.777100,193.857834 
	C172.590408,190.072678 173.279953,186.789093 174.002686,183.512833 
	C176.994614,169.950317 176.188461,156.395554 173.769836,142.446716 
z"/>
<path fill="transparent" opacity="1.000000" stroke="none" 
	d="
M401.629333,99.696823 
	C400.517822,99.299843 399.381927,98.866753 399.074402,98.100998 
	C394.706329,87.224312 390.450531,76.302544 385.748291,64.323586 
	C392.673767,61.779118 400.415649,58.233746 408.531372,56.131493 
	C418.530701,53.541336 428.945038,60.891628 432.273315,70.035423 
	C434.856201,77.131393 437.061066,84.686028 435.850159,91.535545 
	C424.136719,94.292824 413.063446,96.899429 401.629333,99.696823 
z"/>
</svg>