<svg version="1.1" id="Layer_1" xmlns="http://www.w3.org/2000/svg" xmlns:xlink="http://www.w3.org/1999/xlink" x="0px" y="0px"
	 width="100%" viewBox="0 0 512 512" enable-background="new 0 0 512 512" xml:space="preserve">
<path fill="transparent" opacity="1.000000" stroke="none" 
	d="
M513.000000,344.000000 
	C513.000000,400.304260 513.000000,456.608521 513.000000,512.956421 
	C342.450531,512.956421 171.901047,512.956421 1.000000,512.956421 
	C1.000000,457.646271 1.000000,402.291779 1.327287,346.561096 
	C2.314803,346.913879 3.148632,347.547668 3.608555,348.386475 
	C8.527417,357.357391 16.275785,361.140808 26.271505,361.012573 
	C32.103344,360.937744 37.941612,361.156219 43.768372,360.971222 
	C47.261314,360.860352 49.016041,362.415955 49.694736,365.638611 
	C51.762383,375.456299 57.092003,383.235840 64.396545,389.959290 
	C76.115509,400.745941 89.906487,404.798798 105.388824,402.291382 
	C126.564865,398.861816 139.876755,386.162689 145.981949,365.800964 
	C147.013199,362.361603 148.770126,360.828583 152.371750,360.976257 
	C156.530396,361.146759 160.704727,361.064911 164.868362,360.951111 
	C170.403259,360.799896 173.767380,357.976288 173.834976,353.604858 
	C173.905807,349.024567 170.374176,345.456726 165.109604,345.114166 
	C161.623306,344.887299 158.089371,344.754150 154.619507,345.061523 
	C149.348770,345.528442 146.675659,343.765411 145.062164,338.306458 
	C135.915421,307.360016 102.274017,296.017670 75.350090,308.907715 
	C62.280197,315.165070 54.150616,325.829865 50.081966,339.555267 
	C48.887077,343.586151 46.913185,345.292572 42.667900,345.060760 
	C37.350620,344.770386 32.004490,345.057190 26.673101,344.964020 
	C19.740175,344.842926 17.058287,342.141449 17.055874,335.144165 
	C17.033115,269.148346 17.036077,203.152542 17.057505,137.156723 
	C17.059816,130.039719 19.822489,127.312927 27.073282,127.037994 
	C28.904177,126.968575 30.739258,127.000923 32.572414,127.000908 
	C175.563339,126.999596 318.554260,126.999504 461.545197,127.001823 
	C463.544891,127.001854 465.549286,126.951920 467.543365,127.066467 
	C472.720917,127.363892 475.923340,130.366348 477.318420,135.436142 
	C478.461609,139.590530 476.825348,141.035858 472.935028,140.977890 
	C471.102417,140.950577 469.268829,140.998825 467.435669,140.999146 
	C439.770752,141.004135 412.105713,140.956787 384.441010,141.033020 
	C372.205536,141.066727 367.016785,146.304108 367.009247,158.318024 
	C366.992981,184.316360 366.970062,210.314789 367.028961,236.313019 
	C367.048401,244.907104 370.372528,252.164337 377.916534,256.402649 
	C386.280487,261.101593 394.830078,265.859039 403.868317,268.896332 
	C431.655273,278.234039 460.622986,281.196259 489.713470,282.952942 
	C496.704773,283.375122 496.932404,283.290405 496.946198,290.460358 
	C496.973145,304.459442 496.979980,318.458588 496.955383,332.457672 
	C496.941406,340.419525 492.734253,344.729370 484.709778,344.955139 
	C480.546509,345.072296 476.356506,344.729095 472.216827,345.065063 
	C467.443665,345.452423 465.142792,343.688110 463.727020,338.963989 
	C456.992584,316.493103 437.139709,303.191559 414.922424,303.863647 
	C393.399109,304.514709 375.663727,316.905090 369.045410,337.365662 
	C366.580994,344.984375 366.581024,344.996887 358.319794,344.997711 
	C307.656342,345.002655 256.992859,344.986389 206.329468,345.042969 
	C203.537643,345.046082 200.600586,345.191956 197.985580,346.048340 
	C192.642639,347.798157 191.004578,354.995514 195.390717,358.487274 
	C197.567093,360.219971 201.124496,360.889160 204.060211,360.897095 
	C255.889877,361.037018 307.720276,361.069916 359.549713,360.896149 
	C364.793549,360.878571 367.068573,362.515350 368.576691,367.637268 
	C376.686615,395.181213 406.663849,410.113464 433.514099,399.881348 
	C449.004242,393.978424 459.669067,383.011139 463.961639,366.678406 
	C465.107025,362.320343 467.216980,360.663483 471.639099,360.937134 
	C476.453430,361.235077 481.302155,361.065857 486.133667,360.977875 
	C495.788300,360.802155 503.441193,356.895020 508.860352,348.746033 
	C510.012939,347.012878 511.608521,345.574310 513.000000,344.000000 
M34.000000,229.484787 
	C34.000057,230.817017 33.999504,232.149246 34.000267,233.481476 
	C34.008102,247.208878 37.747799,250.991608 51.385162,250.996307 
	C80.527390,251.006332 109.669617,251.002335 138.811844,250.998627 
	C149.469513,250.997269 160.128723,251.087341 170.784317,250.933975 
	C178.154312,250.827896 183.881607,245.861191 183.908188,239.308823 
	C184.025024,210.500381 184.009384,181.691010 183.914215,152.882416 
	C183.895966,147.354843 180.649200,143.439316 175.215668,142.135971 
	C172.180115,141.407837 168.982880,141.059525 165.856842,141.049271 
	C140.211960,140.965118 114.566673,140.999008 88.921516,141.000717 
	C75.932426,141.001572 62.942947,140.951019 49.954372,141.035660 
	C41.283501,141.092148 33.508263,144.142578 33.830894,157.054108 
	C34.425564,180.852615 34.000275,204.676590 34.000000,229.484787 
M198.060379,228.458679 
	C198.062897,230.291138 198.053482,232.123688 198.069855,233.956024 
	C198.179184,246.203140 202.873764,250.983536 214.957520,250.989700 
	C254.436478,251.009872 293.915466,251.024139 333.394348,250.972443 
	C344.235657,250.958237 348.973206,246.182938 348.985779,235.467804 
	C349.016296,209.481705 349.007843,183.495514 348.992767,157.509369 
	C348.985870,145.633743 344.653595,141.068130 332.830994,141.043716 
	C293.518799,140.962540 254.206253,140.963608 214.894073,141.046661 
	C203.823257,141.070053 199.129990,145.573792 198.181976,156.511856 
	C198.009796,158.498154 198.065781,160.506699 198.065125,162.505005 
	C198.057999,184.160126 198.060593,205.815262 198.060379,228.458679 
M392.695618,280.563354 
	C386.829254,280.062775 380.967651,279.247406 375.095093,279.158936 
	C370.190765,279.085022 367.177277,282.398468 367.114594,286.854309 
	C367.048859,291.526306 370.128021,294.668365 375.315125,294.911224 
	C379.119873,295.089355 383.048462,295.520020 386.716797,294.797241 
	C389.646637,294.219940 393.033081,292.694366 394.836639,290.470367 
	C397.239594,287.507355 396.045044,283.864807 392.695618,280.563354 
z"/>
<path fill="transparent" opacity="1.000000" stroke="none" 
	d="
M1.000000,126.000000 
	C1.000000,84.354500 1.000000,42.709000 1.000000,1.031751 
	C171.558792,1.031751 342.117584,1.031751 513.000000,1.031751 
	C513.000000,75.353912 513.000000,149.708298 512.674438,224.372742 
	C511.624115,222.692429 510.624023,220.756760 510.216064,218.703445 
	C504.742615,191.157318 498.896881,163.673569 494.105927,136.007675 
	C491.089294,118.587715 480.102783,110.772919 463.515320,110.815361 
	C333.081146,111.149117 202.645767,111.000290 72.210739,111.000816 
	C56.718460,111.000877 41.206207,110.559624 25.744892,111.252708 
	C20.434296,111.490776 14.851335,113.871605 10.138358,116.573853 
	C6.490063,118.665649 4.003182,122.783066 1.000000,126.000000 
z"/>
<path fill="#4B0000" opacity="1.000000" stroke="none" 
	d="
M1.000000,126.468658 
	C4.003182,122.783066 6.490063,118.665649 10.138358,116.573853 
	C14.851335,113.871605 20.434296,111.490776 25.744892,111.252708 
	C41.206207,110.559624 56.718460,111.000877 72.210739,111.000816 
	C202.645767,111.000290 333.081146,111.149117 463.515320,110.815361 
	C480.102783,110.772919 491.089294,118.587715 494.105927,136.007675 
	C498.896881,163.673569 504.742615,191.157318 510.216064,218.703445 
	C510.624023,220.756760 511.624115,222.692429 512.674438,224.841400 
	C513.000000,264.354218 513.000000,303.708466 513.000000,343.531342 
	C511.608521,345.574310 510.012939,347.012878 508.860352,348.746033 
	C503.441193,356.895020 495.788300,360.802155 486.133667,360.977875 
	C481.302155,361.065857 476.453430,361.235077 471.639099,360.937134 
	C467.216980,360.663483 465.107025,362.320343 463.961639,366.678406 
	C459.669067,383.011139 449.004242,393.978424 433.514099,399.881348 
	C406.663849,410.113464 376.686615,395.181213 368.576691,367.637268 
	C367.068573,362.515350 364.793549,360.878571 359.549713,360.896149 
	C307.720276,361.069916 255.889877,361.037018 204.060211,360.897095 
	C201.124496,360.889160 197.567093,360.219971 195.390717,358.487274 
	C191.004578,354.995514 192.642639,347.798157 197.985580,346.048340 
	C200.600586,345.191956 203.537643,345.046082 206.329468,345.042969 
	C256.992859,344.986389 307.656342,345.002655 358.319794,344.997711 
	C366.581024,344.996887 366.580994,344.984375 369.045410,337.365662 
	C375.663727,316.905090 393.399109,304.514709 414.922424,303.863647 
	C437.139709,303.191559 456.992584,316.493103 463.727020,338.963989 
	C465.142792,343.688110 467.443665,345.452423 472.216827,345.065063 
	C476.356506,344.729095 480.546509,345.072296 484.709778,344.955139 
	C492.734253,344.729370 496.941406,340.419525 496.955383,332.457672 
	C496.979980,318.458588 496.973145,304.459442 496.946198,290.460358 
	C496.932404,283.290405 496.704773,283.375122 489.713470,282.952942 
	C460.622986,281.196259 431.655273,278.234039 403.868317,268.896332 
	C394.830078,265.859039 386.280487,261.101593 377.916534,256.402649 
	C370.372528,252.164337 367.048401,244.907104 367.028961,236.313019 
	C366.970062,210.314789 366.992981,184.316360 367.009247,158.318024 
	C367.016785,146.304108 372.205536,141.066727 384.441010,141.033020 
	C412.105713,140.956787 439.770752,141.004135 467.435669,140.999146 
	C469.268829,140.998825 471.102417,140.950577 472.935028,140.977890 
	C476.825348,141.035858 478.461609,139.590530 477.318420,135.436142 
	C475.923340,130.366348 472.720917,127.363892 467.543365,127.066467 
	C465.549286,126.951920 463.544891,127.001854 461.545197,127.001823 
	C318.554260,126.999504 175.563339,126.999596 32.572414,127.000908 
	C30.739258,127.000923 28.904177,126.968575 27.073282,127.037994 
	C19.822489,127.312927 17.059816,130.039719 17.057505,137.156723 
	C17.036077,203.152542 17.033115,269.148346 17.055874,335.144165 
	C17.058287,342.141449 19.740175,344.842926 26.673101,344.964020 
	C32.004490,345.057190 37.350620,344.770386 42.667900,345.060760 
	C46.913185,345.292572 48.887077,343.586151 50.081966,339.555267 
	C54.150616,325.829865 62.280197,315.165070 75.350090,308.907715 
	C102.274017,296.017670 135.915421,307.360016 145.062164,338.306458 
	C146.675659,343.765411 149.348770,345.528442 154.619507,345.061523 
	C158.089371,344.754150 161.623306,344.887299 165.109604,345.114166 
	C170.374176,345.456726 173.905807,349.024567 173.834976,353.604858 
	C173.767380,357.976288 170.403259,360.799896 164.868362,360.951111 
	C160.704727,361.064911 156.530396,361.146759 152.371750,360.976257 
	C148.770126,360.828583 147.013199,362.361603 145.981949,365.800964 
	C139.876755,386.162689 126.564865,398.861816 105.388824,402.291382 
	C89.906487,404.798798 76.115509,400.745941 64.396545,389.959290 
	C57.092003,383.235840 51.762383,375.456299 49.694736,365.638611 
	C49.016041,362.415955 47.261314,360.860352 43.768372,360.971222 
	C37.941612,361.156219 32.103344,360.937744 26.271505,361.012573 
	C16.275785,361.140808 8.527417,357.357391 3.608555,348.386475 
	C3.148632,347.547668 2.314803,346.913879 1.327287,346.092468 
	C1.000000,272.979095 1.000000,199.958206 1.000000,126.468658 
M457.500000,156.999588 
	C434.844025,157.002365 412.187561,157.081329 389.532440,156.944107 
	C384.957886,156.916397 382.901001,158.257401 382.935699,163.190674 
	C383.102203,186.845062 383.046539,210.501328 382.981720,234.156693 
	C382.970276,238.333176 384.106232,241.975815 387.939575,243.789215 
	C396.320892,247.754059 404.569153,252.574356 413.435394,254.815765 
	C429.980316,258.998413 446.869110,261.944244 463.729126,264.707397 
	C472.873413,266.206055 482.250549,266.305786 491.528320,266.955109 
	C494.457367,267.160095 496.977814,266.487335 496.970520,262.785919 
	C496.951508,253.125977 498.148407,243.258896 496.598755,233.846786 
	C492.630554,209.744858 487.421936,185.847488 482.739441,161.862457 
	C482.055023,158.356598 480.158447,156.843048 476.489624,156.963806 
	C470.499146,157.160980 464.497131,157.005997 457.500000,156.999588 
M66.194336,365.058716 
	C77.336952,389.358673 105.801048,394.661469 122.977486,375.366058 
	C131.883957,365.360870 134.121780,353.642731 129.077194,340.986542 
	C124.541130,329.606140 115.995949,322.285095 104.108055,320.275940 
	C76.376091,315.588989 57.905468,342.028625 66.194336,365.058716 
M419.161621,386.928833 
	C437.050415,383.911743 449.660339,370.853058 449.861176,354.202850 
	C450.022278,340.846069 444.033417,330.263062 432.277222,323.841156 
	C420.727936,317.532349 408.824219,318.094177 397.722595,325.267578 
	C387.294067,332.006012 381.904633,342.241669 382.393463,354.368561 
	C383.172638,373.696625 398.407410,386.956146 419.161621,386.928833 
z"/>
<path fill="#4B0000" opacity="1.000000" stroke="none" 
	d="
M34.000000,228.987366 
	C34.000275,204.676590 34.425564,180.852615 33.830894,157.054108 
	C33.508263,144.142578 41.283501,141.092148 49.954372,141.035660 
	C62.942947,140.951019 75.932426,141.001572 88.921516,141.000717 
	C114.566673,140.999008 140.211960,140.965118 165.856842,141.049271 
	C168.982880,141.059525 172.180115,141.407837 175.215668,142.135971 
	C180.649200,143.439316 183.895966,147.354843 183.914215,152.882416 
	C184.009384,181.691010 184.025024,210.500381 183.908188,239.308823 
	C183.881607,245.861191 178.154312,250.827896 170.784317,250.933975 
	C160.128723,251.087341 149.469513,250.997269 138.811844,250.998627 
	C109.669617,251.002335 80.527390,251.006332 51.385162,250.996307 
	C37.747799,250.991608 34.008102,247.208878 34.000267,233.481476 
	C33.999504,232.149246 34.000057,230.817017 34.000000,228.987366 
M100.806618,231.939133 
	C100.863708,208.803833 100.874557,185.668259 101.020935,162.533524 
	C101.046982,158.417084 99.298698,156.941025 95.314438,156.975327 
	C82.165108,157.088547 69.013153,157.108902 55.864456,156.962479 
	C51.584358,156.914825 49.941292,158.566666 49.963234,162.854126 
	C50.076530,184.992722 50.060913,207.132370 49.976223,229.271225 
	C49.961140,233.215576 51.335392,235.060654 55.490223,235.022461 
	C68.805824,234.900040 82.124321,235.056915 95.438713,234.880753 
	C97.164825,234.857895 98.873459,233.514114 100.806618,231.939133 
M117.000000,211.499969 
	C117.004570,217.323547 117.186653,223.154144 116.957184,228.968491 
	C116.775650,233.568069 118.741577,235.105988 123.184052,235.047882 
	C136.160126,234.878174 149.140839,234.893387 162.117523,235.037277 
	C166.376083,235.084503 168.060440,233.473907 168.038345,229.169189 
	C167.924789,207.040131 167.923172,184.909851 168.038559,162.780807 
	C168.061249,158.429779 166.280670,156.917038 162.067535,156.963089 
	C149.257187,157.103134 136.444168,156.976624 123.632446,157.021774 
	C117.519241,157.043320 117.041130,157.511353 117.022827,163.578476 
	C116.975647,179.218857 117.002632,194.859482 117.000000,211.499969 
z"/>
<path fill="#4B0000" opacity="1.000000" stroke="none" 
	d="
M198.060455,227.964539 
	C198.060593,205.815262 198.057999,184.160126 198.065125,162.505005 
	C198.065781,160.506699 198.009796,158.498154 198.181976,156.511856 
	C199.129990,145.573792 203.823257,141.070053 214.894073,141.046661 
	C254.206253,140.963608 293.518799,140.962540 332.830994,141.043716 
	C344.653595,141.068130 348.985870,145.633743 348.992767,157.509369 
	C349.007843,183.495514 349.016296,209.481705 348.985779,235.467804 
	C348.973206,246.182938 344.235657,250.958237 333.394348,250.972443 
	C293.915466,251.024139 254.436478,251.009872 214.957520,250.989700 
	C202.873764,250.983536 198.179184,246.203140 198.069855,233.956024 
	C198.053482,232.123688 198.062897,230.291138 198.060455,227.964539 
M214.000656,191.500000 
	C214.008148,204.160034 214.069901,216.820419 213.989319,229.479889 
	C213.965820,233.173386 215.266541,235.030945 219.208267,235.004929 
	C233.033676,234.913635 246.860397,234.915390 260.685791,235.007584 
	C264.543793,235.033310 266.063660,233.364761 266.009583,229.585510 
	C265.904724,222.257812 265.900238,214.924362 266.094666,207.599670 
	C266.144440,205.724182 266.524872,202.972595 267.748535,202.200348 
	C270.174561,200.669312 273.384583,199.300461 276.105438,199.564682 
	C280.406342,199.982361 281.762024,203.884567 281.870636,207.760910 
	C282.075867,215.085190 282.055634,222.418060 282.000305,229.746384 
	C281.974060,233.228058 283.294952,235.006012 286.974243,234.988937 
	C300.633301,234.925537 314.292877,234.941238 327.952118,234.982483 
	C331.175049,234.992203 332.972168,233.782181 332.968231,230.319794 
	C332.942322,207.498672 332.944214,184.677490 332.978516,161.856384 
	C332.983551,158.509888 331.465393,157.012299 328.128479,157.021835 
	C314.469238,157.060928 300.809631,157.073608 287.150574,157.005646 
	C283.595276,156.987946 281.933807,158.466553 282.004700,162.076538 
	C282.070068,165.403839 282.142914,168.761765 281.782501,172.059204 
	C281.283325,176.626099 277.567505,179.884720 273.443695,179.831604 
	C269.219025,179.777191 266.303406,176.520203 266.064728,171.412399 
	C265.932648,168.585938 265.855957,165.741348 266.019318,162.920273 
	C266.264954,158.677643 264.529175,156.915192 260.191040,156.962753 
	C246.699707,157.110687 233.204666,157.114594 219.713425,156.963272 
	C215.286499,156.913635 213.895462,158.864120 213.965240,163.015182 
	C214.119217,172.174408 214.005280,181.338120 214.000656,191.500000 
z"/>
<path fill="#4B0000" opacity="1.000000" stroke="none" 
	d="
M393.002747,280.815735 
	C396.045044,283.864807 397.239594,287.507355 394.836639,290.470367 
	C393.033081,292.694366 389.646637,294.219940 386.716797,294.797241 
	C383.048462,295.520020 379.119873,295.089355 375.315125,294.911224 
	C370.128021,294.668365 367.048859,291.526306 367.114594,286.854309 
	C367.177277,282.398468 370.190765,279.085022 375.095093,279.158936 
	C380.967651,279.247406 386.829254,280.062775 393.002747,280.815735 
z"/>
<path fill="transparent" opacity="1.000000" stroke="none" 
	d="
M458.000000,156.999588 
	C464.497131,157.005997 470.499146,157.160980 476.489624,156.963806 
	C480.158447,156.843048 482.055023,158.356598 482.739441,161.862457 
	C487.421936,185.847488 492.630554,209.744858 496.598755,233.846786 
	C498.148407,243.258896 496.951508,253.125977 496.970520,262.785919 
	C496.977814,266.487335 494.457367,267.160095 491.528320,266.955109 
	C482.250549,266.305786 472.873413,266.206055 463.729126,264.707397 
	C446.869110,261.944244 429.980316,258.998413 413.435394,254.815765 
	C404.569153,252.574356 396.320892,247.754059 387.939575,243.789215 
	C384.106232,241.975815 382.970276,238.333176 382.981720,234.156693 
	C383.046539,210.501328 383.102203,186.845062 382.935699,163.190674 
	C382.901001,158.257401 384.957886,156.916397 389.532440,156.944107 
	C412.187561,157.081329 434.844025,157.002365 458.000000,156.999588 
z"/>
<path fill="transparent" opacity="1.000000" stroke="none" 
	d="
M66.085953,364.677277 
	C57.905468,342.028625 76.376091,315.588989 104.108055,320.275940 
	C115.995949,322.285095 124.541130,329.606140 129.077194,340.986542 
	C134.121780,353.642731 131.883957,365.360870 122.977486,375.366058 
	C105.801048,394.661469 77.336952,389.358673 66.085953,364.677277 
z"/>
<path fill="transparent" opacity="1.000000" stroke="none" 
	d="
M418.717163,386.945618 
	C398.407410,386.956146 383.172638,373.696625 382.393463,354.368561 
	C381.904633,342.241669 387.294067,332.006012 397.722595,325.267578 
	C408.824219,318.094177 420.727936,317.532349 432.277222,323.841156 
	C444.033417,330.263062 450.022278,340.846069 449.861176,354.202850 
	C449.660339,370.853058 437.050415,383.911743 418.717163,386.945618 
z"/>
<path fill="transparent" opacity="1.000000" stroke="none" 
	d="
M100.698410,232.360672 
	C98.873459,233.514114 97.164825,234.857895 95.438713,234.880753 
	C82.124321,235.056915 68.805824,234.900040 55.490223,235.022461 
	C51.335392,235.060654 49.961140,233.215576 49.976223,229.271225 
	C50.060913,207.132370 50.076530,184.992722 49.963234,162.854126 
	C49.941292,158.566666 51.584358,156.914825 55.864456,156.962479 
	C69.013153,157.108902 82.165108,157.088547 95.314438,156.975327 
	C99.298698,156.941025 101.046982,158.417084 101.020935,162.533524 
	C100.874557,185.668259 100.863708,208.803833 100.698410,232.360672 
z"/>
<path fill="transparent" opacity="1.000000" stroke="none" 
	d="
M117.000000,210.999985 
	C117.002632,194.859482 116.975647,179.218857 117.022827,163.578476 
	C117.041130,157.511353 117.519241,157.043320 123.632446,157.021774 
	C136.444168,156.976624 149.257187,157.103134 162.067535,156.963089 
	C166.280670,156.917038 168.061249,158.429779 168.038559,162.780807 
	C167.923172,184.909851 167.924789,207.040131 168.038345,229.169189 
	C168.060440,233.473907 166.376083,235.084503 162.117523,235.037277 
	C149.140839,234.893387 136.160126,234.878174 123.184052,235.047882 
	C118.741577,235.105988 116.775650,233.568069 116.957184,228.968491 
	C117.186653,223.154144 117.004570,217.323547 117.000000,210.999985 
z"/>
<path fill="transparent" opacity="1.000000" stroke="none" 
	d="
M214.000656,191.000000 
	C214.005280,181.338120 214.119217,172.174408 213.965240,163.015182 
	C213.895462,158.864120 215.286499,156.913635 219.713425,156.963272 
	C233.204666,157.114594 246.699707,157.110687 260.191040,156.962753 
	C264.529175,156.915192 266.264954,158.677643 266.019318,162.920273 
	C265.855957,165.741348 265.932648,168.585938 266.064728,171.412399 
	C266.303406,176.520203 269.219025,179.777191 273.443695,179.831604 
	C277.567505,179.884720 281.283325,176.626099 281.782501,172.059204 
	C282.142914,168.761765 282.070068,165.403839 282.004700,162.076538 
	C281.933807,158.466553 283.595276,156.987946 287.150574,157.005646 
	C300.809631,157.073608 314.469238,157.060928 328.128479,157.021835 
	C331.465393,157.012299 332.983551,158.509888 332.978516,161.856384 
	C332.944214,184.677490 332.942322,207.498672 332.968231,230.319794 
	C332.972168,233.782181 331.175049,234.992203 327.952118,234.982483 
	C314.292877,234.941238 300.633301,234.925537 286.974243,234.988937 
	C283.294952,235.006012 281.974060,233.228058 282.000305,229.746384 
	C282.055634,222.418060 282.075867,215.085190 281.870636,207.760910 
	C281.762024,203.884567 280.406342,199.982361 276.105438,199.564682 
	C273.384583,199.300461 270.174561,200.669312 267.748535,202.200348 
	C266.524872,202.972595 266.144440,205.724182 266.094666,207.599670 
	C265.900238,214.924362 265.904724,222.257812 266.009583,229.585510 
	C266.063660,233.364761 264.543793,235.033310 260.685791,235.007584 
	C246.860397,234.915390 233.033676,234.913635 219.208267,235.004929 
	C215.266541,235.030945 213.965820,233.173386 213.989319,229.479889 
	C214.069901,216.820419 214.008148,204.160034 214.000656,191.000000 
z"/>
</svg>