<svg version="1.1" id="Layer_1" xmlns="http://www.w3.org/2000/svg" xmlns:xlink="http://www.w3.org/1999/xlink" x="0px" y="0px"
	 width="100%" viewBox="0 0 512 512" enable-background="new 0 0 512 512" xml:space="preserve">
<path fill="transparent" opacity="1.000000" stroke="none" 
	d="
M180.000000,513.000000 
	C120.369354,513.000000 60.738705,513.000000 1.054029,513.000000 
	C1.054029,342.333344 1.054029,171.666672 1.054029,1.000000 
	C12.075933,1.000000 23.069307,1.000000 34.874763,1.240290 
	C28.215820,8.775922 29.629154,15.566989 37.054203,21.550480 
	C49.900200,31.902460 64.414490,39.026585 80.433441,42.763309 
	C83.440163,43.464680 87.752998,42.692417 90.121475,40.863110 
	C92.570404,38.971657 94.685318,34.939861 94.627701,31.888113 
	C94.526672,26.537048 90.561668,23.272255 85.237877,22.121902 
	C72.357887,19.338823 61.140858,13.146198 50.825241,5.193610 
	C49.558624,4.217142 48.926277,2.417936 48.000000,1.000000 
	C187.020889,1.000000 326.041779,1.000000 465.872437,1.223560 
	C465.168549,2.952653 463.778748,4.612993 462.121185,5.938500 
	C451.629547,14.328241 439.596863,19.520910 426.716644,23.027050 
	C421.890228,24.340860 418.284241,29.925657 419.052643,34.146805 
	C419.963776,39.152130 424.627197,43.188995 429.923523,42.908001 
	C433.294464,42.729153 436.708282,41.956692 439.948334,40.951981 
	C454.903412,36.314522 468.706085,29.517605 480.020081,18.413725 
	C484.296051,14.217178 484.269653,8.450031 480.386047,3.836356 
	C479.728638,3.055377 479.452362,1.953575 479.000000,0.999999 
	C490.327606,1.000000 501.655243,1.000000 512.987183,1.000000 
	C512.991455,171.574707 512.991455,342.149414 512.991455,513.000000 
	C406.645935,513.000000 300.291626,513.000000 193.133774,512.759216 
	C193.285828,511.183594 194.384583,509.928070 195.174805,508.501617 
	C202.799973,494.736847 210.659348,481.090454 217.852509,467.102081 
	C222.074692,458.891296 225.213196,450.123291 228.869049,441.535706 
	C230.271149,441.820587 231.547272,441.933502 232.721436,442.340485 
	C249.890259,448.291473 267.319733,452.081268 285.698700,450.060089 
	C298.364960,448.667145 310.123993,444.889740 319.782654,436.585236 
	C340.112061,419.106201 349.002930,395.475403 353.901581,370.010284 
	C355.230927,363.099945 352.776917,359.056213 346.508881,356.234680 
	C331.285614,349.381866 315.202240,345.654022 298.603119,345.136688 
	C282.242859,344.626831 266.730286,348.228607 252.718033,359.037048 
	C253.250549,356.363556 253.679581,354.497620 253.988663,352.612091 
	C256.364563,338.117920 258.856720,323.640778 261.029938,309.116058 
	C262.580353,298.753906 263.945221,288.350037 264.929321,277.921021 
	C265.920898,267.412811 266.303131,256.847900 267.075714,246.316849 
	C267.141632,245.418396 267.949982,244.330002 268.729279,243.767212 
	C274.667328,239.478897 280.662201,235.267975 286.680115,231.091690 
	C306.939667,217.032059 326.085602,201.745697 343.047180,183.669632 
	C357.556213,168.207260 370.060974,151.520889 378.888641,132.248077 
	C387.929169,112.510628 391.703949,91.713020 387.774384,70.261322 
	C384.300629,51.297905 375.438507,35.100353 360.151093,22.509747 
	C334.147217,1.093122 295.717896,1.366499 271.570526,25.984896 
	C266.343018,31.314348 261.460083,36.981785 256.999847,41.857929 
	C252.368942,36.796528 247.629028,31.104574 242.360199,25.953650 
	C226.802200,10.743798 208.282806,4.475840 186.571396,7.928451 
	C162.361160,11.778429 145.371170,25.614067 134.266846,46.670776 
	C125.553543,63.193478 123.379318,81.070869 125.855705,99.727768 
	C128.325058,118.331795 135.185440,135.100830 145.251617,150.636169 
	C150.920776,159.385529 157.108887,167.836395 163.569321,176.022339 
	C168.057449,181.709198 173.043259,187.124619 178.449127,191.940155 
	C189.095306,201.423676 199.926056,210.742615 211.173996,219.495407 
	C221.350327,227.414291 232.246445,234.403091 242.660461,242.027023 
	C244.232849,243.178131 245.896423,245.587189 245.836670,247.357651 
	C245.486145,257.746552 244.706635,268.124023 243.915543,278.493378 
	C243.650864,281.962769 242.926895,285.397125 242.255890,289.901093 
	C241.122284,287.854828 240.488953,286.781921 239.920792,285.675507 
	C231.510925,269.298828 217.996231,258.969238 200.895889,253.054291 
	C183.671936,247.096588 165.750427,247.574341 147.925888,248.130768 
	C139.816849,248.383896 135.966629,251.516235 135.079468,257.145477 
	C134.414398,261.365387 133.834473,265.709198 134.096161,269.943512 
	C134.826141,281.755737 135.266083,293.665314 137.221741,305.300934 
	C139.358078,318.011658 144.850662,329.614563 153.762817,339.226166 
	C169.148376,355.819214 189.208252,361.437836 210.856384,362.933075 
	C217.121353,363.365814 223.441513,362.999481 229.725677,362.999481 
	C229.812347,364.006622 230.005676,364.544189 229.875504,364.986542 
	C224.262589,384.060455 218.935593,403.226074 212.906982,422.168304 
	C204.482971,448.636932 192.519043,473.510345 177.571869,496.935242 
	C174.951523,501.041779 175.413971,506.345398 178.602448,510.154846 
	C179.261139,510.941803 179.543945,512.043396 180.000000,513.000000 
M87.385422,164.897552 
	C86.122231,165.628693 84.774071,166.245224 83.609047,167.108795 
	C72.697243,175.197403 62.557537,184.081543 55.585243,195.960983 
	C52.645020,200.970581 54.177258,206.396515 58.948578,209.520111 
	C63.439411,212.460083 70.075981,211.708588 73.097290,207.280350 
	C81.741173,194.611328 93.329849,185.455322 106.566345,178.110626 
	C110.275917,176.052261 112.320091,170.857239 110.850891,166.093903 
	C109.554985,161.892410 106.574524,158.292999 101.891212,159.199509 
	C97.097336,160.127411 92.610268,162.640411 87.385422,164.897552 
M435.542297,200.033936 
	C437.059967,202.147552 438.587830,204.253952 440.093292,206.376221 
	C443.554504,211.255661 450.134338,212.742813 454.854004,209.701187 
	C460.104065,206.317749 461.607758,200.525589 457.920471,194.996063 
	C447.604340,179.525696 434.039093,167.632034 417.173492,159.699249 
	C411.913300,157.225082 406.223663,159.496262 403.827271,164.504562 
	C401.517212,169.332443 403.263245,175.902573 407.562042,178.220566 
	C417.906982,183.798721 427.137939,190.797958 435.542297,200.033936 
M88.950691,91.050804 
	C74.806244,92.034073 60.668324,93.129539 46.514565,93.952759 
	C39.554459,94.357559 35.958702,97.813133 36.000984,104.814186 
	C36.041653,111.548187 39.582829,115.215233 46.540421,114.942169 
	C58.414703,114.476143 70.277046,113.686935 82.139496,112.954063 
	C84.586586,112.802872 87.173981,112.720062 89.403976,111.852913 
	C91.822037,110.912659 94.724236,109.599480 95.973045,107.564041 
	C100.262367,100.572884 97.570717,94.122116 88.950691,91.050804 
M420.077789,93.405540 
	C416.740601,96.531807 414.345062,100.314613 417.047852,104.612442 
	C418.882111,107.529167 421.926208,111.344582 424.786804,111.676483 
	C439.142090,113.342072 453.606934,114.144257 468.050720,114.928314 
	C474.272339,115.266037 477.628204,111.374451 478.070984,105.281494 
	C478.550262,98.686150 475.517609,94.975899 468.474823,94.107300 
	C461.781525,93.281807 454.978180,93.368141 448.226990,92.986664 
	C442.798096,92.679916 437.377930,92.061920 431.948090,91.983643 
	C428.193237,91.929512 424.428528,92.559334 420.077789,93.405540 
z"/>
<path fill="rgba(0, 0, 0, 0.5)" opacity="1.000000" stroke="none" 
	d="
M180.463181,513.000000 
	C179.543945,512.043396 179.261139,510.941803 178.602448,510.154846 
	C175.413971,506.345398 174.951523,501.041779 177.571869,496.935242 
	C192.519043,473.510345 204.482971,448.636932 212.906982,422.168304 
	C218.935593,403.226074 224.262589,384.060455 229.875504,364.986542 
	C230.005676,364.544189 229.812347,364.006622 229.725677,362.999481 
	C223.441513,362.999481 217.121353,363.365814 210.856384,362.933075 
	C189.208252,361.437836 169.148376,355.819214 153.762817,339.226166 
	C144.850662,329.614563 139.358078,318.011658 137.221741,305.300934 
	C135.266083,293.665314 134.826141,281.755737 134.096161,269.943512 
	C133.834473,265.709198 134.414398,261.365387 135.079468,257.145477 
	C135.966629,251.516235 139.816849,248.383896 147.925888,248.130768 
	C165.750427,247.574341 183.671936,247.096588 200.895889,253.054291 
	C217.996231,258.969238 231.510925,269.298828 239.920792,285.675507 
	C240.488953,286.781921 241.122284,287.854828 242.255890,289.901093 
	C242.926895,285.397125 243.650864,281.962769 243.915543,278.493378 
	C244.706635,268.124023 245.486145,257.746552 245.836670,247.357651 
	C245.896423,245.587189 244.232849,243.178131 242.660461,242.027023 
	C232.246445,234.403091 221.350327,227.414291 211.173996,219.495407 
	C199.926056,210.742615 189.095306,201.423676 178.449127,191.940155 
	C173.043259,187.124619 168.057449,181.709198 163.569321,176.022339 
	C157.108887,167.836395 150.920776,159.385529 145.251617,150.636169 
	C135.185440,135.100830 128.325058,118.331795 125.855705,99.727768 
	C123.379318,81.070869 125.553543,63.193478 134.266846,46.670776 
	C145.371170,25.614067 162.361160,11.778429 186.571396,7.928451 
	C208.282806,4.475840 226.802200,10.743798 242.360199,25.953650 
	C247.629028,31.104574 252.368942,36.796528 256.999847,41.857929 
	C261.460083,36.981785 266.343018,31.314348 271.570526,25.984896 
	C295.717896,1.366499 334.147217,1.093122 360.151093,22.509747 
	C375.438507,35.100353 384.300629,51.297905 387.774384,70.261322 
	C391.703949,91.713020 387.929169,112.510628 378.888641,132.248077 
	C370.060974,151.520889 357.556213,168.207260 343.047180,183.669632 
	C326.085602,201.745697 306.939667,217.032059 286.680115,231.091690 
	C280.662201,235.267975 274.667328,239.478897 268.729279,243.767212 
	C267.949982,244.330002 267.141632,245.418396 267.075714,246.316849 
	C266.303131,256.847900 265.920898,267.412811 264.929321,277.921021 
	C263.945221,288.350037 262.580353,298.753906 261.029938,309.116058 
	C258.856720,323.640778 256.364563,338.117920 253.988663,352.612091 
	C253.679581,354.497620 253.250549,356.363556 252.718033,359.037048 
	C266.730286,348.228607 282.242859,344.626831 298.603119,345.136688 
	C315.202240,345.654022 331.285614,349.381866 346.508881,356.234680 
	C352.776917,359.056213 355.230927,363.099945 353.901581,370.010284 
	C349.002930,395.475403 340.112061,419.106201 319.782654,436.585236 
	C310.123993,444.889740 298.364960,448.667145 285.698700,450.060089 
	C267.319733,452.081268 249.890259,448.291473 232.721436,442.340485 
	C231.547272,441.933502 230.271149,441.820587 228.869049,441.535706 
	C225.213196,450.123291 222.074692,458.891296 217.852509,467.102081 
	C210.659348,481.090454 202.799973,494.736847 195.174805,508.501617 
	C194.384583,509.928070 193.285828,511.183594 192.665115,512.759216 
	C188.975449,513.000000 184.950912,513.000000 180.463181,513.000000 
M286.008209,41.491581 
	C276.970917,49.406830 271.510742,59.681351 267.039642,70.556076 
	C265.150909,75.149879 261.507263,77.678139 257.049164,77.679840 
	C252.564987,77.681549 248.838547,75.195976 246.980148,70.547043 
	C242.095215,58.326969 235.345367,47.327999 225.193192,38.714531 
	C215.428680,30.429977 203.930191,26.026308 191.391281,28.265392 
	C170.971909,31.911699 157.186356,44.399002 149.990204,63.851364 
	C142.333618,84.548355 145.698288,104.626945 154.591110,123.995399 
	C163.951111,144.381317 178.269394,161.113708 194.127487,176.825546 
	C213.168472,195.690887 235.059036,210.725510 257.171356,226.248093 
	C263.641510,221.490646 269.905792,216.482040 276.561951,212.063873 
	C298.873749,197.253967 318.762421,179.728363 336.096436,159.348358 
	C351.572693,141.152573 364.115814,121.515343 367.166260,96.985542 
	C370.119507,73.237320 364.381836,52.638866 345.023346,37.777744 
	C327.064819,23.991350 304.176971,23.794350 286.008209,41.491581 
M307.461060,419.028931 
	C321.022034,406.728790 327.393829,390.687103 331.678894,372.944122 
	C316.274536,368.218018 301.140839,363.770630 285.122864,367.155487 
	C276.382172,369.002533 268.454315,372.786285 262.046204,379.402313 
	C250.981186,390.826172 245.787430,405.234924 241.265030,419.954773 
	C240.975143,420.898254 242.971619,423.508179 244.268967,423.818329 
	C252.508804,425.788208 260.827393,427.459503 269.165131,428.982208 
	C283.147980,431.535858 295.684937,427.994507 307.461060,419.028931 
M224.327103,341.993042 
	C225.764923,341.895508 227.202728,341.797974 228.825226,341.687897 
	C229.518555,328.619019 228.895508,315.954163 224.304855,304.004761 
	C221.828842,297.559723 218.453033,291.075317 214.020035,285.849884 
	C205.609909,275.936432 193.778168,271.653442 181.174423,270.115356 
	C172.596985,269.068634 163.887878,269.100769 154.148300,268.593781 
	C155.188873,279.239655 155.489639,288.661041 157.139252,297.840027 
	C160.331039,315.600128 169.070160,329.774231 186.569351,336.692596 
	C198.311920,341.335052 210.723587,342.797638 224.327103,341.993042 
z"/>
<path fill="rgba(0, 0, 0, 0.5)" opacity="1.000000" stroke="none" 
	d="
M47.536816,1.000000 
	C48.926277,2.417936 49.558624,4.217142 50.825241,5.193610 
	C61.140858,13.146198 72.357887,19.338823 85.237877,22.121902 
	C90.561668,23.272255 94.526672,26.537048 94.627701,31.888113 
	C94.685318,34.939861 92.570404,38.971657 90.121475,40.863110 
	C87.752998,42.692417 83.440163,43.464680 80.433441,42.763309 
	C64.414490,39.026585 49.900200,31.902460 37.054203,21.550480 
	C29.629154,15.566989 28.215820,8.775922 35.343422,1.240290 
	C39.024544,1.000000 43.049088,1.000000 47.536816,1.000000 
z"/>
<path fill="rgba(0, 0, 0, 0.5)" opacity="1.000000" stroke="none" 
	d="
M478.536804,0.999999 
	C479.452362,1.953575 479.728638,3.055377 480.386047,3.836356 
	C484.269653,8.450031 484.296051,14.217178 480.020081,18.413725 
	C468.706085,29.517605 454.903412,36.314522 439.948334,40.951981 
	C436.708282,41.956692 433.294464,42.729153 429.923523,42.908001 
	C424.627197,43.188995 419.963776,39.152130 419.052643,34.146805 
	C418.284241,29.925657 421.890228,24.340860 426.716644,23.027050 
	C439.596863,19.520910 451.629547,14.328241 462.121185,5.938500 
	C463.778748,4.612993 465.168549,2.952653 466.341064,1.223560 
	C470.024536,1.000000 474.049103,1.000000 478.536804,0.999999 
z"/>
<path fill="rgba(0, 0, 0, 0.5)" opacity="1.000000" stroke="none" 
	d="
M87.687164,164.678558 
	C92.610268,162.640411 97.097336,160.127411 101.891212,159.199509 
	C106.574524,158.292999 109.554985,161.892410 110.850891,166.093903 
	C112.320091,170.857239 110.275917,176.052261 106.566345,178.110626 
	C93.329849,185.455322 81.741173,194.611328 73.097290,207.280350 
	C70.075981,211.708588 63.439411,212.460083 58.948578,209.520111 
	C54.177258,206.396515 52.645020,200.970581 55.585243,195.960983 
	C62.557537,184.081543 72.697243,175.197403 83.609047,167.108795 
	C84.774071,166.245224 86.122231,165.628693 87.687164,164.678558 
z"/>
<path fill="rgba(0, 0, 0, 0.5)" opacity="1.000000" stroke="none" 
	d="
M435.284302,199.784241 
	C427.137939,190.797958 417.906982,183.798721 407.562042,178.220566 
	C403.263245,175.902573 401.517212,169.332443 403.827271,164.504562 
	C406.223663,159.496262 411.913300,157.225082 417.173492,159.699249 
	C434.039093,167.632034 447.604340,179.525696 457.920471,194.996063 
	C461.607758,200.525589 460.104065,206.317749 454.854004,209.701187 
	C450.134338,212.742813 443.554504,211.255661 440.093292,206.376221 
	C438.587830,204.253952 437.059967,202.147552 435.284302,199.784241 
z"/>
<path fill="rgba(0, 0, 0, 0.5)" opacity="1.000000" stroke="none" 
	d="
M89.353317,91.166649 
	C97.570717,94.122116 100.262367,100.572884 95.973045,107.564041 
	C94.724236,109.599480 91.822037,110.912659 89.403976,111.852913 
	C87.173981,112.720062 84.586586,112.802872 82.139496,112.954063 
	C70.277046,113.686935 58.414703,114.476143 46.540421,114.942169 
	C39.582829,115.215233 36.041653,111.548187 36.000984,104.814186 
	C35.958702,97.813133 39.554459,94.357559 46.514565,93.952759 
	C60.668324,93.129539 74.806244,92.034073 89.353317,91.166649 
z"/>
<path fill="rgba(0, 0, 0, 0.5)" opacity="1.000000" stroke="none" 
	d="
M420.373016,93.144531 
	C424.428528,92.559334 428.193237,91.929512 431.948090,91.983643 
	C437.377930,92.061920 442.798096,92.679916 448.226990,92.986664 
	C454.978180,93.368141 461.781525,93.281807 468.474823,94.107300 
	C475.517609,94.975899 478.550262,98.686150 478.070984,105.281494 
	C477.628204,111.374451 474.272339,115.266037 468.050720,114.928314 
	C453.606934,114.144257 439.142090,113.342072 424.786804,111.676483 
	C421.926208,111.344582 418.882111,107.529167 417.047852,104.612442 
	C414.345062,100.314613 416.740601,96.531807 420.373016,93.144531 
z"/>
<path fill="transparent" opacity="1.000000" stroke="none" 
	d="
M286.262878,41.243771 
	C304.176971,23.794350 327.064819,23.991350 345.023346,37.777744 
	C364.381836,52.638866 370.119507,73.237320 367.166260,96.985542 
	C364.115814,121.515343 351.572693,141.152573 336.096436,159.348358 
	C318.762421,179.728363 298.873749,197.253967 276.561951,212.063873 
	C269.905792,216.482040 263.641510,221.490646 257.171356,226.248093 
	C235.059036,210.725510 213.168472,195.690887 194.127487,176.825546 
	C178.269394,161.113708 163.951111,144.381317 154.591110,123.995399 
	C145.698288,104.626945 142.333618,84.548355 149.990204,63.851364 
	C157.186356,44.399002 170.971909,31.911699 191.391281,28.265392 
	C203.930191,26.026308 215.428680,30.429977 225.193192,38.714531 
	C235.345367,47.327999 242.095215,58.326969 246.980148,70.547043 
	C248.838547,75.195976 252.564987,77.681549 257.049164,77.679840 
	C261.507263,77.678139 265.150909,75.149879 267.039642,70.556076 
	C271.510742,59.681351 276.970917,49.406830 286.262878,41.243771 
z"/>
<path fill="transparent" opacity="1.000000" stroke="none" 
	d="
M307.210754,419.288727 
	C295.684937,427.994507 283.147980,431.535858 269.165131,428.982208 
	C260.827393,427.459503 252.508804,425.788208 244.268967,423.818329 
	C242.971619,423.508179 240.975143,420.898254 241.265030,419.954773 
	C245.787430,405.234924 250.981186,390.826172 262.046204,379.402313 
	C268.454315,372.786285 276.382172,369.002533 285.122864,367.155487 
	C301.140839,363.770630 316.274536,368.218018 331.678894,372.944122 
	C327.393829,390.687103 321.022034,406.728790 307.210754,419.288727 
z"/>
<path fill="transparent" opacity="1.000000" stroke="none" 
	d="
M223.842743,341.986450 
	C210.723587,342.797638 198.311920,341.335052 186.569351,336.692596 
	C169.070160,329.774231 160.331039,315.600128 157.139252,297.840027 
	C155.489639,288.661041 155.188873,279.239655 154.148300,268.593781 
	C163.887878,269.100769 172.596985,269.068634 181.174423,270.115356 
	C193.778168,271.653442 205.609909,275.936432 214.020035,285.849884 
	C218.453033,291.075317 221.828842,297.559723 224.304855,304.004761 
	C228.895508,315.954163 229.518555,328.619019 228.825226,341.687897 
	C227.202728,341.797974 225.764923,341.895508 223.842743,341.986450 
z"/>
</svg>