<svg version="1.1" id="Layer_1" xmlns="http://www.w3.org/2000/svg" xmlns:xlink="http://www.w3.org/1999/xlink" x="0px" y="0px"
	 width="100%" viewBox="0 0 512 512" enable-background="new 0 0 512 512" xml:space="preserve">
<path fill="#4B0000" opacity="1.000000" stroke="none" 
	d="
M289.000000,513.000000 
	C267.979095,513.000000 246.958206,513.000000 225.289276,512.671448 
	C222.434982,511.851685 220.245102,511.264679 218.019989,510.883423 
	C179.123245,504.219482 143.013748,490.597961 110.613403,467.777649 
	C82.703232,448.119843 59.317257,424.084473 40.852757,395.318146 
	C21.814106,365.657318 9.469838,333.446289 3.803524,298.650696 
	C3.269060,295.368652 1.953116,292.213867 0.999998,289.000000 
	C1.000000,267.979095 1.000000,246.958206 1.328398,225.289734 
	C2.069083,223.766251 2.733705,222.924469 2.857390,222.009552 
	C8.469103,180.499603 23.398087,142.669952 47.702263,108.565865 
	C70.449265,76.646858 98.983559,51.012043 133.178909,32.003147 
	C158.800446,17.760355 186.293793,8.384481 215.348526,3.800667 
	C218.631271,3.282768 221.785934,1.953191 225.000000,0.999999 
	C246.020889,1.000000 267.041779,1.000000 288.710266,1.328379 
	C290.565674,2.097008 291.742065,2.780828 292.985992,2.941498 
	C317.084473,6.054125 340.242950,12.783896 362.280396,22.742760 
	C397.325989,38.580078 427.301392,61.421139 452.322235,90.722694 
	C483.099762,126.765839 502.188354,168.205124 510.162781,214.865479 
	C510.750549,218.304840 512.037903,221.624619 513.000000,225.000000 
	C513.000000,246.020889 513.000000,267.041779 512.671448,288.710815 
	C510.881409,296.448334 509.465027,303.547394 507.950928,310.625519 
	C498.528931,354.672424 478.914886,393.686371 448.998810,427.264587 
	C433.036499,445.180969 414.999573,460.923737 394.524384,473.737244 
	C364.661591,492.425598 332.532593,504.921356 297.641113,510.222046 
	C294.688232,510.670624 291.877014,512.052002 289.000000,513.000000 
M426.466095,108.978256 
	C418.735657,101.217041 411.394592,93.015266 403.203186,85.775574 
	C376.519135,62.191818 345.474915,46.760292 311.048828,38.043209 
	C290.770721,32.908543 270.146362,31.474636 249.242645,31.878527 
	C226.026337,32.327099 203.597244,36.743637 181.861145,44.340992 
	C153.438629,54.275440 128.009293,69.632004 105.722931,89.907051 
	C85.873932,107.964699 69.521744,128.854156 57.149376,152.722916 
	C40.074600,185.663589 31.720625,220.574890 31.843679,257.839600 
	C31.952217,290.710144 38.595474,321.904510 52.367451,351.536560 
	C73.459023,396.917603 106.315735,431.586151 150.195068,455.482910 
	C190.796036,477.594269 234.374466,485.544189 280.351624,481.149170 
	C305.458527,478.749207 329.301208,471.881317 352.085632,461.370789 
	C382.928040,447.143066 409.115662,426.645020 430.761902,400.543579 
	C452.763947,374.013092 467.869263,343.879517 476.115021,310.362518 
	C482.341644,285.052765 483.357819,259.412231 481.102844,233.546097 
	C479.401062,214.025375 474.898865,195.102081 467.663330,176.988541 
	C462.867676,164.983002 457.367615,153.086731 450.669891,142.060593 
	C443.722076,130.622772 434.950378,120.292847 426.466095,108.978256 
z"/>
<path fill="transparent" opacity="1.000000" stroke="none" 
	d="
M289.468658,513.000000 
	C291.877014,512.052002 294.688232,510.670624 297.641113,510.222046 
	C332.532593,504.921356 364.661591,492.425598 394.524384,473.737244 
	C414.999573,460.923737 433.036499,445.180969 448.998810,427.264587 
	C478.914886,393.686371 498.528931,354.672424 507.950928,310.625519 
	C509.465027,303.547394 510.881409,296.448334 512.671448,289.179443 
	C513.000000,363.593719 513.000000,438.187408 513.000000,513.000000 
	C438.645905,513.000000 364.291626,513.000000 289.468658,513.000000 
z"/>
<path fill="transparent" opacity="1.000000" stroke="none" 
	d="
M0.999998,289.468658 
	C1.953116,292.213867 3.269060,295.368652 3.803524,298.650696 
	C9.469838,333.446289 21.814106,365.657318 40.852757,395.318146 
	C59.317257,424.084473 82.703232,448.119843 110.613403,467.777649 
	C143.013748,490.597961 179.123245,504.219482 218.019989,510.883423 
	C220.245102,511.264679 222.434982,511.851685 224.820618,512.671448 
	C150.406296,513.000000 75.812599,513.000000 1.000000,513.000000 
	C1.000000,438.645905 1.000000,364.291626 0.999998,289.468658 
z"/>
<path fill="transparent" opacity="1.000000" stroke="none" 
	d="
M513.000000,224.531342 
	C512.037903,221.624619 510.750549,218.304840 510.162781,214.865479 
	C502.188354,168.205124 483.099762,126.765839 452.322235,90.722694 
	C427.301392,61.421139 397.325989,38.580078 362.280396,22.742760 
	C340.242950,12.783896 317.084473,6.054125 292.985992,2.941498 
	C291.742065,2.780828 290.565674,2.097008 289.178925,1.328379 
	C363.593719,1.000000 438.187408,1.000000 513.000000,1.000000 
	C513.000000,75.354088 513.000000,149.708389 513.000000,224.531342 
z"/>
<path fill="transparent" opacity="1.000000" stroke="none" 
	d="
M224.531342,0.999999 
	C221.785934,1.953191 218.631271,3.282768 215.348526,3.800667 
	C186.293793,8.384481 158.800446,17.760355 133.178909,32.003147 
	C98.983559,51.012043 70.449265,76.646858 47.702263,108.565865 
	C23.398087,142.669952 8.469103,180.499603 2.857390,222.009552 
	C2.733705,222.924469 2.069083,223.766251 1.328398,224.821075 
	C1.000000,150.406296 1.000000,75.812576 1.000000,1.000000 
	C75.354088,1.000000 149.708389,1.000000 224.531342,0.999999 
z"/>
<path fill="transparent" opacity="1.000000" stroke="none" 
	d="
M426.721222,109.228317 
	C434.950378,120.292847 443.722076,130.622772 450.669891,142.060593 
	C457.367615,153.086731 462.867676,164.983002 467.663330,176.988541 
	C474.898865,195.102081 479.401062,214.025375 481.102844,233.546097 
	C483.357819,259.412231 482.341644,285.052765 476.115021,310.362518 
	C467.869263,343.879517 452.763947,374.013092 430.761902,400.543579 
	C409.115662,426.645020 382.928040,447.143066 352.085632,461.370789 
	C329.301208,471.881317 305.458527,478.749207 280.351624,481.149170 
	C234.374466,485.544189 190.796036,477.594269 150.195068,455.482910 
	C106.315735,431.586151 73.459023,396.917603 52.367451,351.536560 
	C38.595474,321.904510 31.952217,290.710144 31.843679,257.839600 
	C31.720625,220.574890 40.074600,185.663589 57.149376,152.722916 
	C69.521744,128.854156 85.873932,107.964699 105.722931,89.907051 
	C128.009293,69.632004 153.438629,54.275440 181.861145,44.340992 
	C203.597244,36.743637 226.026337,32.327099 249.242645,31.878527 
	C270.146362,31.474636 290.770721,32.908543 311.048828,38.043209 
	C345.474915,46.760292 376.519135,62.191818 403.203186,85.775574 
	C411.394592,93.015266 418.735657,101.217041 426.721222,109.228317 
M348.375122,276.853943 
	C352.296814,271.512482 357.050629,266.591827 360.000427,260.758881 
	C375.169891,230.762634 376.507019,200.189972 359.998749,170.463730 
	C343.696075,141.107773 317.890381,125.760216 284.186646,125.109039 
	C256.543701,124.574966 228.882217,124.998589 201.228943,125.001038 
	C191.007889,125.001945 191.001465,125.006302 191.001236,134.992020 
	C190.999435,216.285980 191.000046,297.579956 191.001556,378.873901 
	C191.001587,380.539673 191.088058,382.208252 191.018326,383.870636 
	C190.868454,387.443024 192.503876,389.044983 196.097931,388.993195 
	C202.093567,388.906830 208.091797,389.022705 214.088501,388.984039 
	C220.519669,388.942566 220.971069,388.532104 220.981033,382.187286 
	C221.016083,359.864838 220.994339,337.542267 221.002426,315.219757 
	C221.005753,306.018707 221.016357,306.100159 230.001862,305.984253 
	C250.793564,305.716034 271.630859,306.116760 292.362396,304.834869 
	C314.384125,303.473206 332.583954,293.002563 348.375122,276.853943 
z"/>
<path fill="#4B0000" opacity="1.000000" stroke="none" 
	d="
M348.149445,277.130005 
	C332.583954,293.002563 314.384125,303.473206 292.362396,304.834869 
	C271.630859,306.116760 250.793564,305.716034 230.001862,305.984253 
	C221.016357,306.100159 221.005753,306.018707 221.002426,315.219757 
	C220.994339,337.542267 221.016083,359.864838 220.981033,382.187286 
	C220.971069,388.532104 220.519669,388.942566 214.088501,388.984039 
	C208.091797,389.022705 202.093567,388.906830 196.097931,388.993195 
	C192.503876,389.044983 190.868454,387.443024 191.018326,383.870636 
	C191.088058,382.208252 191.001587,380.539673 191.001556,378.873901 
	C191.000046,297.579956 190.999435,216.285980 191.001236,134.992020 
	C191.001465,125.006302 191.007889,125.001945 201.228943,125.001038 
	C228.882217,124.998589 256.543701,124.574966 284.186646,125.109039 
	C317.890381,125.760216 343.696075,141.107773 359.998749,170.463730 
	C376.507019,200.189972 375.169891,230.762634 360.000427,260.758881 
	C357.050629,266.591827 352.296814,271.512482 348.149445,277.130005 
M221.002533,267.351685 
	C221.150772,274.813141 221.278595,274.980621 228.572342,274.989594 
	C246.393356,275.011475 264.220673,275.284790 282.033447,274.900269 
	C296.033447,274.598083 308.820984,270.276398 319.580902,260.906769 
	C334.948303,247.524979 341.218597,230.742035 340.173615,210.368347 
	C338.671356,181.079575 313.554626,156.129120 284.219940,156.016251 
	C265.732971,155.945129 247.245483,155.988937 228.758255,156.008911 
	C221.163208,156.017120 221.010651,156.173584 221.007614,163.961914 
	C220.994263,198.105042 221.001282,232.248169 221.002533,267.351685 
z"/>
<path fill="transparent" opacity="1.000000" stroke="none" 
	d="
M221.001724,266.871490 
	C221.001282,232.248169 220.994263,198.105042 221.007614,163.961914 
	C221.010651,156.173584 221.163208,156.017120 228.758255,156.008911 
	C247.245483,155.988937 265.732971,155.945129 284.219940,156.016251 
	C313.554626,156.129120 338.671356,181.079575 340.173615,210.368347 
	C341.218597,230.742035 334.948303,247.524979 319.580902,260.906769 
	C308.820984,270.276398 296.033447,274.598083 282.033447,274.900269 
	C264.220673,275.284790 246.393356,275.011475 228.572342,274.989594 
	C221.278595,274.980621 221.150772,274.813141 221.001724,266.871490 
z"/>
</svg>