<svg version="1.1" id="Layer_1" xmlns="http://www.w3.org/2000/svg" xmlns:xlink="http://www.w3.org/1999/xlink" x="0px" y="0px"
	 width="100%" viewBox="0 0 512 512" enable-background="new 0 0 512 512" xml:space="preserve">
<path fill="transparent" opacity="1.000000" stroke="none" 
	d="
M116.000000,0.999999 
	C248.261612,1.000000 380.523224,1.000000 513.000000,1.000000 
	C513.000000,133.023254 513.000000,265.046600 512.652283,397.750122 
	C511.895721,397.937683 511.244720,397.501892 511.113922,396.944153 
	C508.647156,386.423065 502.115234,378.527771 494.705414,371.141083 
	C473.226196,349.729034 451.764252,328.299438 430.357269,306.815247 
	C419.750854,296.170593 407.333282,291.018860 392.010712,290.760651 
	C372.592438,290.433441 353.766846,304.605133 347.633698,323.309998 
	C340.340698,345.552063 318.192810,357.207428 295.007721,353.678955 
	C281.721222,351.656982 269.486450,345.432129 258.134125,338.379822 
	C237.443268,325.526276 218.668442,310.302185 202.312073,291.995056 
	C186.232742,273.998016 172.171524,254.814148 163.818161,232.095856 
	C160.706467,223.633102 157.597336,214.076172 158.511627,205.444473 
	C160.691803,184.861816 173.397202,171.492340 192.871719,164.563721 
	C211.194473,158.044861 221.621460,141.832443 222.936172,123.429237 
	C224.062607,107.661453 217.846832,94.484810 206.963593,83.488548 
	C185.745056,62.049648 164.272797,40.861931 143.047180,19.429989 
	C135.750168,12.062058 127.616386,6.227732 117.709213,2.962545 
	C117.000824,2.729073 116.563416,1.673382 116.000000,0.999999 
z"/>
<path fill="#808080" opacity="1.000000" stroke="none" 
	d="
M115.531342,0.999999 
	C116.563416,1.673382 117.000824,2.729073 117.709213,2.962545 
	C127.616386,6.227732 135.750168,12.062058 143.047180,19.429989 
	C164.272797,40.861931 185.745056,62.049648 206.963593,83.488548 
	C217.846832,94.484810 224.062607,107.661453 222.936172,123.429237 
	C221.621460,141.832443 211.194473,158.044861 192.871719,164.563721 
	C173.397202,171.492340 160.691803,184.861816 158.511627,205.444473 
	C157.597336,214.076172 160.706467,223.633102 163.818161,232.095856 
	C172.171524,254.814148 186.232742,273.998016 202.312073,291.995056 
	C218.668442,310.302185 237.443268,325.526276 258.134125,338.379822 
	C269.486450,345.432129 281.721222,351.656982 295.007721,353.678955 
	C318.192810,357.207428 340.340698,345.552063 347.633698,323.309998 
	C353.766846,304.605133 372.592438,290.433441 392.010712,290.760651 
	C407.333282,291.018860 419.750854,296.170593 430.357269,306.815247 
	C451.764252,328.299438 473.226196,349.729034 494.705414,371.141083 
	C502.115234,378.527771 508.647156,386.423065 511.113922,396.944153 
	C511.244720,397.501892 511.895721,397.937683 512.652283,398.215118 
	C513.000000,406.020905 513.000000,414.041809 512.660156,422.294983 
	C511.814941,423.502319 511.147217,424.427399 510.829498,425.460144 
	C507.765106,435.421173 502.198639,443.661896 494.701172,450.922089 
	C481.089691,464.102753 467.635773,477.460907 454.510406,491.123840 
	C444.789764,501.242584 433.559692,508.237885 419.774445,511.080811 
	C419.080566,511.223907 418.586884,512.338013 418.000000,513.000000 
	C403.979095,513.000000 389.958221,513.000000 375.612244,512.600708 
	C371.551117,511.319977 367.809906,510.459839 364.079926,509.553436 
	C339.500031,503.580536 316.029724,494.650024 293.931976,482.364563 
	C278.495850,473.782654 262.869843,465.370850 248.284088,455.474762 
	C230.447678,443.373169 213.318573,430.166107 196.433868,416.744812 
	C183.157959,406.192017 170.269669,395.057190 158.006866,383.345673 
	C138.129562,364.362000 118.832680,344.748016 101.719353,323.161713 
	C89.630287,307.912842 77.367661,292.762360 66.071678,276.933441 
	C50.395699,254.966904 36.933617,231.619308 25.531185,207.105011 
	C15.849846,186.290909 7.795418,164.977371 3.864851,142.245132 
	C3.431672,139.739868 1.979543,137.410797 0.999999,135.000000 
	C1.000000,122.645775 1.000000,110.291542 1.382628,97.645020 
	C2.167555,96.686256 2.809791,96.062332 2.936561,95.347038 
	C5.247840,82.305565 10.542623,70.829750 20.069971,61.392944 
	C34.934307,46.669876 49.729553,31.875986 64.444862,17.004040 
	C70.610619,10.772648 77.100121,5.195540 85.826836,2.874797 
	C86.347275,2.736393 86.614792,1.646914 87.000000,0.999999 
	C96.354225,1.000000 105.708458,1.000000 115.531342,0.999999 
z"/>
<path fill="transparent" opacity="1.000000" stroke="none" 
	d="
M0.999999,135.468658 
	C1.979543,137.410797 3.431672,139.739868 3.864851,142.245132 
	C7.795418,164.977371 15.849846,186.290909 25.531185,207.105011 
	C36.933617,231.619308 50.395699,254.966904 66.071678,276.933441 
	C77.367661,292.762360 89.630287,307.912842 101.719353,323.161713 
	C118.832680,344.748016 138.129562,364.362000 158.006866,383.345673 
	C170.269669,395.057190 183.157959,406.192017 196.433868,416.744812 
	C213.318573,430.166107 230.447678,443.373169 248.284088,455.474762 
	C262.869843,465.370850 278.495850,473.782654 293.931976,482.364563 
	C316.029724,494.650024 339.500031,503.580536 364.079926,509.553436 
	C367.809906,510.459839 371.551117,511.319977 375.143555,512.600708 
	C250.405869,513.000000 125.811745,513.000000 1.000000,513.000000 
	C1.000000,387.312531 1.000000,261.624908 0.999999,135.468658 
z"/>
<path fill="transparent" opacity="1.000000" stroke="none" 
	d="
M418.468628,513.000000 
	C418.586884,512.338013 419.080566,511.223907 419.774445,511.080811 
	C433.559692,508.237885 444.789764,501.242584 454.510406,491.123840 
	C467.635773,477.460907 481.089691,464.102753 494.701172,450.922089 
	C502.198639,443.661896 507.765106,435.421173 510.829498,425.460144 
	C511.147217,424.427399 511.814941,423.502319 512.660156,422.763641 
	C513.000000,452.928894 513.000000,482.857788 513.000000,513.000000 
	C481.646088,513.000000 450.291718,513.000000 418.468628,513.000000 
z"/>
<path fill="transparent" opacity="1.000000" stroke="none" 
	d="
M86.531342,0.999999 
	C86.614792,1.646914 86.347275,2.736393 85.826836,2.874797 
	C77.100121,5.195540 70.610619,10.772648 64.444862,17.004040 
	C49.729553,31.875986 34.934307,46.669876 20.069971,61.392944 
	C10.542623,70.829750 5.247840,82.305565 2.936561,95.347038 
	C2.809791,96.062332 2.167555,96.686256 1.382628,97.176361 
	C1.000000,65.077095 1.000000,33.154194 1.000000,1.000000 
	C29.353809,1.000000 57.708244,1.000000 86.531342,0.999999 
z"/>
</svg>